<svg width="19" height="20" viewBox="0 0 19 20" fill="none" xmlns="http://www.w3.org/2000/svg">
<path d="M1.21094 16.6641C0.707031 17.1797 0.683594 18.0938 1.22266 18.6211C1.76172 19.1484 2.66406 19.1367 3.17969 18.6328L9.83594 11.9766L16.4805 18.6328C17.0078 19.1484 17.9102 19.1602 18.4375 18.6211C18.9648 18.082 18.9766 17.1914 18.4492 16.6641L11.793 10.0078L18.4492 3.36328C18.9766 2.83594 18.9766 1.93359 18.4375 1.40625C17.8984 0.878906 17.0078 0.878906 16.4805 1.39453L9.83594 8.05078L3.17969 1.39453C2.66406 0.890625 1.75 0.867188 1.22266 1.40625C0.695312 1.94531 0.707031 2.84766 1.21094 3.35156L7.86719 10.0078L1.21094 16.6641Z" fill="white"/>
</svg>
