<svg width="86" height="90" viewBox="0 0 86 90" fill="none" xmlns="http://www.w3.org/2000/svg">
<path fill-rule="evenodd" clip-rule="evenodd" d="M43.8584 0.82596L23.6913 20.9931C23.6913 20.9931 27.3432 20.0459 29.6832 19.4391C34.3908 19.3343 39.7311 20.0396 44.25 21.363C50.203 23.1063 56.0592 24.3949 64.0255 20.9931L43.8584 0.82596Z" fill="#F14942"/>
<path d="M9.87439 35.9297L0 45.5976L43.1652 89.2496L85.2019 45.5976L76.456 35.9297L43.1652 70.4997L9.87439 35.9297Z" fill="#00B6F2"/>
<path d="M54.6755 35.5618C48.559 41.6783 43.3835 46.6773 43.0895 46.5597C42.8542 46.4421 37.6788 41.5019 31.6799 35.5618L20.7997 24.7992L17.2709 28.3867C15.3301 30.3275 13.7422 32.2095 13.7422 32.5036C13.7422 33.2093 42.7366 62.5566 43.4424 62.5566C43.7952 62.5566 50.7939 55.7932 59.0276 47.5595L74.0247 32.5624L69.9079 28.5044L65.791 24.3875L54.6755 35.5618Z" fill="#F14942"/>
<path fill-rule="evenodd" clip-rule="evenodd" d="M43.8036 41.0842L63.9707 20.9171L57.9922 22.7347C52.5346 23.6451 47.9991 22.3169 43.4802 20.9935C37.5272 19.2502 31.6028 17.5152 23.6365 20.9171L43.8036 41.0842Z" fill="#00B6F2"/>
</svg>
