<svg width="80" height="80" viewBox="0 0 80 80" fill="none" xmlns="http://www.w3.org/2000/svg">
<path d="M49.0895 13.2238C47.2115 3.14805 32.7885 3.14805 30.9105 13.2238C30.0946 17.6008 25.5694 20.2145 21.3765 18.734C11.7138 15.322 4.51141 27.8274 12.2864 34.4898C15.6651 37.385 15.6651 42.6156 12.2864 45.5109C4.51141 52.1733 11.7138 64.6786 21.3765 61.2666C25.5694 59.7861 30.0946 62.3998 30.9105 66.7768C32.7885 76.8526 47.2115 76.8526 49.0895 66.7768C49.9054 62.3998 54.4306 59.7861 58.6235 61.2666C68.2862 64.6786 75.4886 52.1733 67.7136 45.5109C64.3349 42.6156 64.3349 37.385 67.7136 34.4898C75.4886 27.8274 68.2862 15.322 58.6235 18.734C54.4306 20.2145 49.9054 17.6008 49.0895 13.2238Z" stroke="#3186EE" stroke-width="2" stroke-linejoin="round"/>
<circle cx="13.3333" cy="13.3333" r="12.3333" transform="matrix(-1 0 0 1 53.3334 26.667)" stroke="#1C2F47" stroke-width="2"/>
</svg>
