<svg width="80" height="80" viewBox="0 0 80 80" fill="none" xmlns="http://www.w3.org/2000/svg">
<g id="Sale Coupon">
<path id="Subtract" d="M78.3542 34.4091L78.3541 34.409C78.3548 34.4084 78.3552 34.4079 78.3553 34.4078C78.3554 34.4076 78.3554 34.4077 78.3552 34.4079C78.3548 34.4084 78.3546 34.4087 78.3548 34.4085C78.3549 34.4082 78.356 34.4065 78.358 34.4028C78.359 34.4008 78.3603 34.3982 78.3618 34.3948C78.3633 34.3915 78.3651 34.3874 78.3671 34.3825C78.3844 34.3397 78.4142 34.2439 78.4386 34.0518C78.4918 33.6316 78.4896 33.0458 78.4805 32.0613C78.4053 23.9269 78.0622 19.3379 76.6899 15.6511C74.6968 10.2966 71.8807 7.04125 67.5999 4.6418C63.7914 2.50704 58.1141 1.5 47.406 1.5H32.594C21.8859 1.5 16.2086 2.50704 12.4001 4.6418C8.11932 7.04125 5.30315 10.2966 3.31007 15.6511C1.93777 19.3379 1.59468 23.9269 1.51949 32.0613C1.51039 33.0458 1.50824 33.6316 1.56145 34.0518C1.58578 34.2439 1.61555 34.3397 1.63289 34.3825C1.63691 34.3924 1.64005 34.3989 1.64202 34.4028C1.64357 34.4058 1.64459 34.4074 1.64501 34.4081C1.64521 34.4084 1.6455 34.4086 1.64588 34.409L1.6458 34.4091M78.3542 34.4091L78.3541 34.409C78.354 34.4092 78.3539 34.4093 78.3537 34.4094C78.3529 34.4099 78.3513 34.4109 78.3487 34.4122C78.3449 34.4143 78.3383 34.4175 78.3283 34.4216C78.285 34.4396 78.1884 34.4704 77.9948 34.4967C77.5722 34.5539 76.9822 34.5571 75.9929 34.5571H71.5591C68.2743 34.5571 66.1046 37.7029 66.1046 40.9098C66.1046 44.1167 68.2743 47.2624 71.5591 47.2624H75.9778C76.9705 47.2624 77.5623 47.2657 77.9861 47.3234C78.1801 47.3498 78.2767 47.3808 78.3199 47.3988C78.3299 47.403 78.3364 47.4062 78.3402 47.4082C78.3429 47.4096 78.3445 47.4106 78.3453 47.4111C78.3455 47.4112 78.3457 47.4114 78.3459 47.4117C78.3474 47.4132 78.3478 47.4137 78.3475 47.4134L78.3473 47.4131C78.3475 47.4134 78.3486 47.4151 78.3505 47.4189C78.3524 47.4226 78.3555 47.4291 78.3594 47.4389C78.3764 47.4812 78.4056 47.5765 78.4288 47.7681C78.4796 48.1877 78.4737 48.7724 78.4581 49.7569C78.3472 56.7839 77.9531 60.9553 76.6899 64.3489C74.6968 69.7034 71.8807 72.9587 67.5999 75.3582C63.7914 77.493 58.1141 78.5 47.406 78.5H32.594C21.8859 78.5 16.2086 77.493 12.4001 75.3582C8.11932 72.9587 5.30315 69.7034 3.31007 64.3489C2.04691 60.9553 1.65282 56.7839 1.54186 49.7569C1.52632 48.7724 1.52039 48.1877 1.57119 47.7681C1.59438 47.5765 1.62361 47.4812 1.64056 47.4389C1.6445 47.4291 1.64759 47.4226 1.64952 47.4189C1.65142 47.4151 1.65252 47.4134 1.65271 47.4131L1.65278 47.413C1.65276 47.413 1.65265 47.4132 1.65249 47.4134C1.65239 47.4135 1.65239 47.4135 1.65253 47.4134C1.65273 47.4131 1.65322 47.4126 1.6541 47.4117C1.65433 47.4114 1.65453 47.4113 1.65469 47.4111C1.65545 47.4106 1.65708 47.4096 1.65978 47.4082C1.66358 47.4062 1.67014 47.403 1.68014 47.3988C1.7233 47.3808 1.81994 47.3498 2.01392 47.3234C2.43765 47.2657 3.02947 47.2624 4.02225 47.2624H8.44086C11.7257 47.2624 13.8953 44.1167 13.8953 40.9098C13.8953 37.7029 11.7257 34.5571 8.44086 34.5571H4.00714C3.01777 34.5571 2.42777 34.5539 2.00516 34.4967C1.81163 34.4704 1.71501 34.4396 1.67173 34.4216C1.66169 34.4175 1.65511 34.4143 1.65129 34.4122C1.64867 34.4109 1.64706 34.4099 1.64625 34.4094C1.64614 34.4093 1.64602 34.4092 1.64588 34.409L1.6458 34.4091M78.3542 34.4091C78.3543 34.4091 78.3543 34.409 78.3543 34.409L78.3542 34.4091ZM1.6458 34.4091C1.64569 34.409 1.64561 34.409 1.64561 34.409L1.64564 34.409C1.64567 34.409 1.64572 34.4091 1.6458 34.4091Z" stroke="#3186EE" stroke-width="3"/>
<path id="Vector 144" d="M50 30L30 50M30 30V33.3333M50 46.6667V50" stroke="white" stroke-width="3" stroke-linecap="round" stroke-linejoin="round"/>
<path id="Squircle" d="M48.0004 50.009C47.9905 51.1055 48.1559 51.5302 48.3003 51.7036C48.3998 51.8229 48.6431 52 49.5002 52C50.3566 52 50.5934 51.8233 50.6905 51.7061C50.8363 51.53 51 51.1018 51 50C51 48.8982 50.8363 48.47 50.6905 48.2939C50.5934 48.1767 50.3566 48 49.5002 48C48.6447 48 48.4143 48.1763 48.3196 48.2915C48.1725 48.4704 48.0104 48.9018 48.0004 50.009Z" stroke="#1C2F47" stroke-width="2" stroke-linecap="round" stroke-linejoin="round"/>
<path id="Squircle_2" d="M28.0004 31.009C27.9905 32.1055 28.1559 32.5302 28.3003 32.7036C28.3998 32.8229 28.6431 33 29.5002 33C30.3566 33 30.5934 32.8233 30.6905 32.7061C30.8363 32.53 31 32.1018 31 31C31 29.8982 30.8363 29.47 30.6905 29.2939C30.5934 29.1767 30.3566 29 29.5002 29C28.6447 29 28.4143 29.1763 28.3196 29.2915C28.1725 29.4704 28.0104 29.9018 28.0004 31.009Z" stroke="#1C2F47" stroke-width="2" stroke-linecap="round" stroke-linejoin="round"/>
<path id="Vector 145" d="M30.5 50L50 30" stroke="#1C2F47" stroke-width="3" stroke-linecap="round"/>
</g>
</svg>
