<svg width="84" height="68" viewBox="0 0 84 68" fill="none" xmlns="http://www.w3.org/2000/svg">
<path d="M54 54H46H38M26 54H18M2.04419 26C2 28.3081 2 30.9459 2 34C2 45.201 2 50.8016 4.17987 55.0798C6.09734 58.8431 9.15695 61.9027 12.9202 63.8201C17.1984 66 22.7989 66 34 66H50C61.2011 66 66.8016 66 71.0798 63.8201C74.8431 61.9027 77.9027 58.8431 79.8201 55.0798C82 50.8016 82 45.201 82 34C82 30.9459 82 28.3081 81.9558 26M2.04419 26C2.16207 19.8431 2.59437 16.0319 4.17987 12.9202C6.09734 9.15695 9.15695 6.09734 12.9202 4.17987C17.1984 2 22.7989 2 34 2H50C61.201 2 66.8016 2 71.0798 4.17987C74.8431 6.09734 77.9027 9.15695 79.8201 12.9202C81.4056 16.0319 81.8379 19.8431 81.9558 26M2.04419 26H81.9558" stroke="#3186EE" stroke-width="3" stroke-linecap="round"/>
<path d="M38 54H54" stroke="#1C2F47" stroke-width="3" stroke-linecap="round"/>
<path d="M18 54H26" stroke="#1C2F47" stroke-width="3" stroke-linecap="round"/>
</svg>
