<svg width="80" height="80" viewBox="0 0 80 80" fill="none" xmlns="http://www.w3.org/2000/svg">
<g id="Hicon / Linear / Send 3">
<g id="Send 2">
<g id="Vector">
<mask id="path-1-inside-1_106_584" fill="white">
<path d="M57.4568 9.09305C66.3434 7.38874 74.1453 15.1906 72.441 24.0772L66.5922 54.5741C65.5043 60.247 61.2047 64.7954 55.612 66.2402C44.4408 69.126 34.2761 58.7611 37.5313 47.6918C38.1948 45.4355 36.0985 43.3392 33.8421 44.0028C22.773 47.2579 12.4082 37.0932 15.2939 25.922C16.7387 20.3294 21.2871 16.0298 26.96 14.9419L57.4568 9.09305Z"/>
</mask>
<path d="M20.7245 58.6883C20.1387 59.2741 20.1387 60.2239 20.7245 60.8097C21.3102 61.3954 22.26 61.3954 22.8458 60.8097L20.7245 58.6883ZM27.5598 56.0956C28.1456 55.5098 28.1456 54.5601 27.5598 53.9743C26.974 53.3885 26.0243 53.3885 25.4385 53.9743L27.5598 56.0956ZM23.0815 70.4734C22.4957 71.0592 22.4957 72.009 23.0815 72.5948C23.6673 73.1806 24.617 73.1806 25.2028 72.5948L23.0815 70.4734ZM29.9168 67.8807C30.5026 67.2949 30.5026 66.3452 29.9168 65.7594C29.3311 65.1736 28.3813 65.1736 27.7955 65.7594L29.9168 67.8807ZM8.93934 56.3313C8.35355 56.9171 8.35355 57.8668 8.93934 58.4526C9.52513 59.0384 10.4749 59.0384 11.0607 58.4526L8.93934 56.3313ZM15.7747 53.7386C16.3605 53.1528 16.3605 52.2031 15.7747 51.6173C15.1889 51.0315 14.2392 51.0315 13.6534 51.6173L15.7747 53.7386ZM22.8458 60.8097L27.5598 56.0956L25.4385 53.9743L20.7245 58.6883L22.8458 60.8097ZM25.2028 72.5948L29.9168 67.8807L27.7955 65.7594L23.0815 70.4734L25.2028 72.5948ZM11.0607 58.4526L15.7747 53.7386L13.6534 51.6173L8.93934 56.3313L11.0607 58.4526ZM15.2939 25.922L18.1986 26.6724L15.2939 25.922ZM26.96 14.9419L27.525 17.8882L26.96 14.9419ZM33.8421 44.0028L32.9958 41.1246L33.8421 44.0028ZM37.5313 47.6918L34.6531 46.8455L37.5313 47.6918ZM55.612 66.2402L54.8617 63.3355L55.612 66.2402ZM66.5922 54.5741L69.5385 55.1391L66.5922 54.5741ZM72.441 24.0772L69.4947 23.5121V23.5121L72.441 24.0772ZM57.4568 9.09305L56.8918 6.14674L57.4568 9.09305ZM69.4947 23.5121L63.6459 54.009L69.5385 55.1391L75.3873 24.6422L69.4947 23.5121ZM27.525 17.8882L58.0219 12.0394L56.8918 6.14674L26.3949 11.9956L27.525 17.8882ZM18.1986 26.6724C19.3557 22.1932 23.0001 18.756 27.525 17.8882L26.3949 11.9956C19.5741 13.3037 14.1217 18.4656 12.3893 25.1717L18.1986 26.6724ZM32.9958 41.1246C24.2 43.7113 15.8855 35.6266 18.1986 26.6724L12.3893 25.1717C8.93082 38.5598 21.346 50.8046 34.6885 46.8809L32.9958 41.1246ZM40.4094 48.5382C41.7428 44.004 37.53 39.7912 32.9958 41.1246L34.6885 46.8809C34.7033 46.8765 34.7046 46.8781 34.6953 46.8782C34.6866 46.8782 34.6768 46.8769 34.6682 46.8745C34.6601 46.8723 34.6561 46.8701 34.6558 46.8698C34.6556 46.8698 34.6576 46.871 34.6603 46.8737C34.663 46.8764 34.6642 46.8784 34.6642 46.8783C34.6639 46.8779 34.6617 46.8739 34.6595 46.8659C34.6571 46.8572 34.6558 46.8474 34.6558 46.8388C34.6559 46.8294 34.6575 46.8307 34.6531 46.8455L40.4094 48.5382ZM54.8617 63.3355C45.9074 65.6486 37.8228 57.3341 40.4094 48.5382L34.6531 46.8455C30.7294 60.188 42.9742 72.6033 56.3624 69.1448L54.8617 63.3355ZM63.6459 54.009C62.7781 58.534 59.3409 62.1784 54.8617 63.3355L56.3624 69.1448C63.0686 67.4124 68.2304 61.9599 69.5385 55.1391L63.6459 54.009ZM75.3873 24.6422C77.491 13.6732 67.8608 4.04305 56.8918 6.14674L58.0219 12.0394C64.826 10.7344 70.7996 16.708 69.4947 23.5121L75.3873 24.6422Z" fill="#3186EE" mask="url(#path-1-inside-1_106_584)"/>
</g>
<path id="Vector 148" d="M9 58L15 52" stroke="#1C2F47" stroke-width="3" stroke-linecap="round"/>
<path id="Vector 149" d="M22 60L27 55" stroke="#1C2F47" stroke-width="3" stroke-linecap="round"/>
<path id="Vector 150" d="M24 72L29 67" stroke="#1C2F47" stroke-width="3" stroke-linecap="round"/>
</g>
</g>
</svg>
