<svg width="80" height="80" viewBox="0 0 80 80" fill="none" xmlns="http://www.w3.org/2000/svg">
<g id="Virus Checked">
<path id="Squircle" d="M77.9217 40.1772C77.9881 39.8632 77.9916 39.8355 77.9947 39.805C77.9978 39.7756 78.0001 39.7421 77.9992 39.3994C77.9554 23.1238 76.076 14.1107 70.8413 8.96558C68.2442 6.41284 64.6628 4.65837 59.6191 3.54949C54.5541 2.43592 48.1385 2 40 2C31.8615 2 25.4459 2.43592 20.3809 3.54949C15.3372 4.65837 11.7559 6.41284 9.15868 8.96558C3.92397 14.1107 2.04458 23.1238 2.0008 39.3994C1.99988 39.7421 2.00225 39.7756 2.00528 39.8049C2.00843 39.8355 2.01191 39.8632 2.07829 40.1771L0.121555 40.5909L2.0783 40.1772C7.98824 68.1281 33.5929 76.298 39.3542 77.7908C39.63 77.8623 39.7494 77.8922 39.8446 77.9102C39.9058 77.9217 39.941 77.9251 40 77.9251C40.059 77.9251 40.0942 77.9217 40.1554 77.9102C40.2506 77.8922 40.37 77.8623 40.6458 77.7908C46.4071 76.298 72.0118 68.1281 77.9217 40.1772Z" stroke="#3186EE" stroke-width="4" stroke-linecap="round" stroke-linejoin="round"/>
<path id="Union" fill-rule="evenodd" clip-rule="evenodd" d="M54.3941 31.0607C54.9799 30.4749 54.9799 29.5251 54.3941 28.9393C53.8083 28.3536 52.8586 28.3536 52.2728 28.9393L36.6668 44.5453L31.0608 38.9393C30.475 38.3535 29.5252 38.3535 28.9395 38.9393C28.3537 39.5251 28.3537 40.4749 28.9395 41.0607L35.6061 47.7273C36.1919 48.3131 37.1417 48.3131 37.7274 47.7273L54.3941 31.0607Z" fill="#1C2F47"/>
</g>
</svg>
