<svg width="80" height="73" viewBox="0 0 80 73" fill="none" xmlns="http://www.w3.org/2000/svg">
<g id="Color Palette">
<ellipse id="Ellipse 71" cx="18.4615" cy="54.7497" rx="3.07692" ry="3.04165" fill="#1C2F47"/>
<path id="Union" fill-rule="evenodd" clip-rule="evenodd" d="M3.72791 54.5484C3.20386 49.8865 3 43.9811 3 36.4998C3 29.0186 3.20386 23.1132 3.72791 18.4513C4.25498 13.7624 5.08497 10.55 6.20666 8.33235C7.27413 6.22188 8.60993 4.99613 10.3699 4.22281C12.2513 3.39615 14.8167 3 18.4615 3C22.1064 3 24.6717 3.39615 26.5531 4.22281C28.3131 4.99613 29.6489 6.22188 30.7164 8.33235C31.8381 10.55 32.6681 13.7624 33.1952 18.4513C33.7192 23.1132 33.9231 29.0186 33.9231 36.4998C33.9231 43.9811 33.7192 49.8865 33.1952 54.5484C32.6681 59.2372 31.8381 62.4497 30.7164 64.6673C29.6489 66.7778 28.3131 68.0035 26.5531 68.7769C24.6717 69.6035 22.1064 69.9997 18.4615 69.9997C14.8167 69.9997 12.2513 69.6035 10.3699 68.7769C8.60993 68.0035 7.27413 66.7778 6.20666 64.6673C5.08497 62.4497 4.25498 59.2372 3.72791 54.5484ZM18.4615 72.9997C3.25846 72.9997 0 66.5575 0 36.4998C0 6.44222 3.25846 0 18.4615 0C28.6504 0 33.4744 2.89352 35.5481 13.8499C49.9646 1.11378 56.2728 0.97052 65.2682 9.86283C73.8622 18.3583 74.1134 24.4291 62.8839 37.3813C76.5374 39.1142 80 43.7953 80 54.7501C80 69.7789 73.4831 73 43.0769 73C35.8807 73 30.0225 72.8196 25.2722 72.3449C23.324 72.8103 21.0683 72.9997 18.4615 72.9997ZM30.5987 69.732C34.1841 69.9203 38.3158 70 43.0769 70C50.6461 70 56.6245 69.7985 61.3462 69.2798C66.0953 68.7581 69.3568 67.9358 71.6115 66.8214C73.7602 65.7594 74.9953 64.4358 75.7705 62.7116C76.5999 60.867 77 58.3465 77 54.7501C77 51.1537 76.5999 48.6332 75.7705 46.7885C74.9953 45.0644 73.7602 43.7408 71.6115 42.6787C69.3568 41.5643 66.0953 40.742 61.3462 40.2204C61.0458 40.1874 60.7404 40.1557 60.4298 40.1252C58.0885 42.6723 55.3562 45.4705 52.2139 48.5768C44.6793 56.025 38.9362 61.1428 34.1917 64.1915C33.2861 66.6002 32.1098 68.4048 30.5987 69.732ZM36.9231 36.4998C36.9231 28.6034 36.6982 22.3369 36.0909 17.3888C38.1114 15.5549 39.9601 13.97 41.6681 12.6193C45.3972 9.67031 48.2868 7.97544 50.6722 7.1894C52.944 6.44083 54.7647 6.51064 56.5542 7.19098C58.4681 7.91856 60.5598 9.42647 63.1347 11.9719C65.7096 14.5173 67.235 16.585 67.971 18.4769C68.6593 20.246 68.7299 22.0458 67.9726 24.2915C67.1775 26.6496 65.4629 29.5061 62.4798 33.1924C59.5138 36.8574 55.4322 41.1772 50.0804 46.4677C44.7286 51.7582 40.3587 55.793 36.6512 58.725C36.2406 59.0496 35.8402 59.3591 35.4496 59.6538C36.5459 54.2183 36.9231 46.7257 36.9231 36.4998Z" fill="#3186EE"/>
</g>
</svg>
