<svg width="80" height="74" viewBox="0 0 80 74" fill="none" xmlns="http://www.w3.org/2000/svg">
<g id="User Accepted ">
<path id="Squircle" d="M1.5 58.5833C1.5 61.6675 1.86814 63.9506 2.71701 65.6904C3.53813 67.3733 4.87254 68.6762 7.09274 69.6875C9.36207 70.7211 12.5324 71.4369 16.9501 71.8841C21.3535 72.3298 26.893 72.5 33.8462 72.5C40.7994 72.5 46.3388 72.3298 50.7422 71.8841C55.1599 71.4369 58.3302 70.7211 60.5996 69.6875C62.8198 68.6762 64.1542 67.3733 64.9753 65.6904C65.8242 63.9506 66.1923 61.6675 66.1923 58.5833C66.1923 55.4992 65.8242 53.2161 64.9753 51.4763C64.1542 49.7934 62.8198 48.4905 60.5996 47.4792C58.3302 46.4455 55.1599 45.7298 50.7422 45.2826C46.3388 44.8368 40.7994 44.6667 33.8462 44.6667C26.893 44.6667 21.3535 44.8368 16.9501 45.2826C12.5324 45.7298 9.36207 46.4455 7.09274 47.4792C4.87254 48.4905 3.53813 49.7934 2.71701 51.4763C1.86814 53.2161 1.5 55.4992 1.5 58.5833Z" stroke="#3186EE" stroke-width="3" stroke-linecap="round" stroke-linejoin="round"/>
<path id="Ellipse 44" d="M16.8846 18.5C16.8846 27.8918 24.4815 35.5 33.8461 35.5C43.2108 35.5 50.8077 27.8918 50.8077 18.5C50.8077 9.10821 43.2108 1.5 33.8461 1.5C24.4815 1.5 16.8846 9.10821 16.8846 18.5Z" stroke="#3186EE" stroke-width="3"/>
<path id="Vector 25" d="M58.4615 32.3753L63.0769 37.0003L75.3846 24.667" stroke="#1C2F47" stroke-width="3" stroke-linecap="round" stroke-linejoin="round"/>
</g>
</svg>
