<svg width="80" height="80" viewBox="0 0 80 80" fill="none" xmlns="http://www.w3.org/2000/svg">
<g id="Home">
<path id="Squircle" d="M3.9159 64.447C0.535864 49.0009 1.45599 35.2783 2.22103 30.1983C2.22069 30.2006 2.22051 30.2017 2.2206 30.2017C2.22138 30.2019 2.24504 30.1022 2.37025 29.8793C2.49974 29.6487 2.69884 29.3547 2.97989 28.9955C3.54212 28.2771 4.35715 27.3931 5.39503 26.3702C7.4662 24.3289 10.3154 21.841 13.5278 19.1839C19.946 13.8753 27.7128 7.97409 33.3605 3.76909C37.4081 0.755536 42.9064 0.74225 46.9661 3.7378C52.661 7.94005 60.4984 13.8495 66.9354 19.1661C70.1578 21.8276 73.0012 24.3176 75.044 26.358C76.0682 27.381 76.8601 28.2604 77.3931 28.9706C77.6595 29.3256 77.8401 29.6106 77.9514 29.8279C78.0407 30.0026 78.0601 30.0852 78.0626 30.0924C78.0698 30.2013 78.0773 30.3138 78.0851 30.43C78.4483 35.8838 79.3464 49.3692 76.372 64.4779C75.5643 68.5803 74.0052 71.3813 71.5746 73.334C69.1064 75.3169 65.566 76.5664 60.523 77.1962C58.0649 77.5032 55.6295 77.7559 53.2106 77.9544C44.2903 78.6865 35.5879 78.6817 26.7926 77.9409C24.4623 77.7446 22.125 77.4966 19.775 77.1968C14.7381 76.5543 11.2413 75.2915 8.79299 73.3051C6.37589 71.344 4.81124 68.5385 3.9159 64.447Z" stroke="#3186EE" stroke-width="3" stroke-linecap="round" stroke-linejoin="round"/>
<circle id="Ellipse 10" cx="8" cy="8" r="7" transform="matrix(-1 0 0 1 48 23)" stroke="#1C2F47" stroke-width="2"/>
</g>
</svg>
