<svg width="288" height="56" viewBox="0 0 288 56" fill="none" xmlns="http://www.w3.org/2000/svg">
<path d="M84.6417 0.981142H78.9577V29.2184H84.6417V0.981142Z" fill="#3B342A"/>
<path d="M72.8682 23.473C72.481 23.1787 72.1712 22.795 71.9656 22.355C71.76 21.9148 71.6646 21.4314 71.6878 20.9464V14.3772H75.6443V8.81871H71.7233V0.940771H66.1508V21.2193C66.2288 23.4094 67.1499 25.4852 68.7226 27.0154C70.2954 28.5456 72.3988 29.4124 74.5957 29.4357C74.9565 29.4352 75.3169 29.4115 75.6747 29.3651V23.5791C75.6747 23.5791 74.0232 24.2664 72.8682 23.473Z" fill="#3B342A"/>
<path d="M52.6351 8.33396C49.9087 8.38619 47.3112 9.50133 45.399 11.4406C43.4868 13.3797 42.4119 15.9887 42.4046 18.7088C42.3973 21.4288 43.4582 24.0435 45.36 25.9929C47.2618 27.9422 49.8533 29.0713 52.5794 29.138C54.3606 29.1969 56.1063 28.6319 57.5136 27.5411V29.138H63.0861V18.7334C63.0767 15.9738 61.9719 13.3303 60.0132 11.3813C58.0546 9.43233 55.4016 8.33662 52.6351 8.33396ZM52.6351 23.8725C51.6231 23.8725 50.6339 23.5732 49.7925 23.0124C48.951 22.4516 48.2952 21.6545 47.908 20.7219C47.5207 19.7893 47.4194 18.7631 47.6168 17.7731C47.8143 16.7831 48.3016 15.8737 49.0171 15.16C49.7327 14.4462 50.6444 13.9601 51.6369 13.7632C52.6294 13.5662 53.6582 13.6673 54.5931 14.0536C55.528 14.4399 56.3272 15.0941 56.8894 15.9333C57.4515 16.7726 57.7517 17.7594 57.7517 18.7688C57.7517 19.439 57.6193 20.1027 57.3622 20.7219C57.105 21.3411 56.7282 21.9038 56.2531 22.3777C55.7779 22.8516 55.2139 23.2275 54.5931 23.484C53.9724 23.7405 53.307 23.8725 52.6351 23.8725Z" fill="#3B342A"/>
<path d="M159.749 8.18682C157.673 8.18682 155.643 8.80088 153.917 9.95137C152.191 11.1019 150.846 12.7371 150.052 14.6503C149.256 16.5634 149.049 18.6686 149.454 20.6997C149.859 22.7307 150.859 24.5963 152.327 26.0606C153.795 27.5249 155.665 28.5221 157.701 28.9261C159.737 29.3301 161.848 29.1228 163.765 28.3303C165.684 27.5378 167.323 26.1959 168.477 24.474C169.63 22.7522 170.246 20.7279 170.246 18.6571C170.247 17.2819 169.975 15.9201 169.448 14.6494C168.921 13.3789 168.147 12.2244 167.172 11.252C166.198 10.2796 165.04 9.50841 163.766 8.98247C162.493 8.45652 161.127 8.18615 159.749 8.18682ZM159.749 23.6041C158.768 23.6041 157.809 23.314 156.993 22.7704C156.178 22.2268 155.542 21.4541 155.167 20.5502C154.792 19.6463 154.694 18.6516 154.885 17.6919C155.076 16.7323 155.549 15.8508 156.242 15.1589C156.935 14.4671 157.819 13.9959 158.781 13.805C159.744 13.6142 160.741 13.7121 161.646 14.0865C162.553 14.461 163.328 15.0951 163.873 15.9086C164.417 16.7221 164.708 17.6786 164.708 18.6571C164.709 19.3069 164.581 19.9505 164.332 20.551C164.083 21.1515 163.718 21.6971 163.257 22.1566C162.797 22.6162 162.25 22.9805 161.647 23.2289C161.046 23.4773 160.4 23.6048 159.749 23.6041Z" fill="#3B342A"/>
<path d="M258.545 9.67283C257 8.49039 255.454 8.33879 253.616 8.33879C251.557 8.35475 249.549 8.97825 247.844 10.1307C246.14 11.2832 244.816 12.9131 244.038 14.8151C243.261 16.717 243.065 18.8059 243.476 20.8186C243.887 22.8312 244.885 24.6776 246.346 26.125C247.808 27.5724 249.665 28.5561 251.685 28.9522C253.706 29.3483 255.799 29.1391 257.7 28.3508C259.602 27.5625 261.227 26.2306 262.371 24.5226C263.514 22.8148 264.126 20.8074 264.128 18.7534V0.839844H258.555L258.545 9.67283ZM253.56 23.8218C252.549 23.8208 251.56 23.5206 250.719 22.9592C249.878 22.3978 249.223 21.6003 248.837 20.6677C248.45 19.735 248.349 18.709 248.548 17.7193C248.746 16.7296 249.233 15.8207 249.949 15.1074C250.665 14.3942 251.577 13.9085 252.569 13.7121C253.561 13.5155 254.59 13.6169 255.525 14.0033C256.459 14.3897 257.258 15.0439 257.819 15.8831C258.382 16.7223 258.682 17.7089 258.682 18.718C258.682 19.3887 258.549 20.0528 258.292 20.6723C258.035 21.2919 257.657 21.8547 257.181 22.3287C256.706 22.8027 256.141 23.1786 255.52 23.4348C254.899 23.6909 254.233 23.8225 253.56 23.8218Z" fill="#3B342A"/>
<path d="M232.222 16.5604V29.1378H237.734V16.6211C237.858 15.8292 238.258 15.1065 238.865 14.5805C239.471 14.0544 240.244 13.7588 241.047 13.7458C241.337 13.718 241.628 13.718 241.918 13.7458V8.29335C241.66 8.29335 241.301 8.26809 241.047 8.26809C238.793 8.26796 236.625 9.12622 234.985 10.6675C233.345 12.2087 232.356 14.3166 232.222 16.5604Z" fill="#3B342A"/>
<path d="M287.203 18.7077C287.231 16.0379 286.257 13.4542 284.473 11.464C282.689 9.47384 280.223 8.22108 277.561 7.95187C274.897 7.68265 272.23 8.41644 270.081 10.0091C267.933 11.6017 266.46 13.938 265.951 16.5591C265.441 19.1802 265.933 21.8965 267.329 24.1745C268.725 26.4524 270.924 28.1274 273.495 28.8702C276.066 29.6131 278.823 29.3701 281.223 28.1891C283.624 27.0081 285.495 24.9743 286.469 22.4875H280.739C279.656 23.6199 278.168 24.2778 276.6 24.3167C275.496 24.3166 274.416 23.9922 273.495 23.3838C272.575 22.7754 271.853 21.9101 271.423 20.8957H286.985V21.012C287.138 20.2535 287.212 19.4812 287.203 18.7077ZM271.469 16.3832C271.914 15.4025 272.633 14.5707 273.541 13.9873C274.448 13.4039 275.505 13.0937 276.585 13.0937C277.665 13.0937 278.721 13.4039 279.628 13.9873C280.536 14.5707 281.256 15.4025 281.701 16.3832H271.469Z" fill="#3B342A"/>
<path d="M219.279 8.18682C217.203 8.18682 215.174 8.80088 213.447 9.95137C211.721 11.1019 210.376 12.7371 209.581 14.6503C208.787 16.5634 208.579 18.6686 208.984 20.6997C209.389 22.7307 210.389 24.5963 211.857 26.0606C213.324 27.5249 215.195 28.5221 217.231 28.926C219.268 29.3301 221.378 29.1228 223.296 28.3303C225.214 27.5378 226.853 26.1959 228.006 24.474C229.16 22.7522 229.775 20.7279 229.775 18.6571C229.775 15.8801 228.67 13.217 226.701 11.2534C224.733 9.28992 222.063 8.18682 219.279 8.18682ZM219.279 23.6041C218.298 23.6051 217.339 23.3159 216.522 22.7728C215.706 22.2299 215.069 21.4576 214.693 20.5537C214.317 19.6499 214.218 18.655 214.409 17.6951C214.6 16.7351 215.072 15.8531 215.765 15.1607C216.458 14.4684 217.342 13.9967 218.304 13.8054C219.267 13.6141 220.264 13.7118 221.171 14.086C222.077 14.4603 222.852 15.0944 223.397 15.9081C223.942 16.7218 224.233 17.6784 224.233 18.6571C224.234 19.3065 224.106 19.9497 223.857 20.5498C223.609 21.15 223.245 21.6954 222.784 22.1548C222.324 22.6143 221.778 22.9788 221.176 23.2274C220.575 23.4761 219.93 23.6041 219.279 23.6041Z" fill="#3B342A"/>
<path d="M181.674 8.2681C179.421 8.26797 177.253 9.12623 175.613 10.6675C173.972 12.2087 172.984 14.3166 172.849 16.5604V29.1378H178.351V16.6211C178.477 15.8284 178.88 15.1055 179.488 14.5796C180.096 14.0536 180.869 13.7584 181.674 13.7458C182.467 13.7395 183.236 14.017 183.841 14.5279C184.446 15.0388 184.847 15.7492 184.973 16.5301V29.0923H190.509V16.5604C190.373 14.3153 189.384 12.2067 187.742 10.6654C186.1 9.12412 183.93 8.2666 181.674 8.2681Z" fill="#3B342A"/>
<path d="M119.581 16.0243C115.589 14.6802 117.013 12.093 119.14 12.3355C120.529 12.4921 121.051 14.1193 121.051 14.1193L125.67 12.3052C124.657 9.74827 121.911 7.97965 118.659 7.97965C114.551 7.97965 111.232 10.8903 111.232 14.4831C111.232 16.2214 111.607 18.1619 114.49 19.5363C117.372 20.9108 120.766 21.1078 120.529 23.4475C120.3 25.5446 117.57 24.9634 117.099 24.827C116.583 24.6504 116.122 24.3449 115.76 23.9396C115.397 23.5344 115.145 23.043 115.027 22.5127L110.691 24.1095C111.881 28.0156 115.503 29.3951 118.76 29.3951C122.864 29.3951 126.278 26.4845 126.278 22.9018C126.271 22.0236 126.085 21.156 125.731 20.3517C125.377 19.5474 124.864 18.823 124.221 18.2225C124.221 18.2225 123.562 17.3736 119.581 16.0243Z" fill="#3B342A"/>
<path d="M203.185 13.7153C204.005 13.7169 204.813 13.9199 205.536 14.3065L208.282 9.50599C206.693 8.62607 204.903 8.17242 203.087 8.1894C201.27 8.20638 199.489 8.69342 197.917 9.60289C196.345 10.5123 195.037 11.813 194.122 13.3779C193.205 14.9427 192.711 16.7179 192.689 18.53C192.667 20.3421 193.116 22.1289 193.993 23.7158C194.871 25.3026 196.146 26.6352 197.694 27.583C199.243 28.5309 201.012 29.0616 202.828 29.1233C204.643 29.185 206.444 28.7756 208.053 27.935L205.52 23.0283C204.808 23.4078 204.013 23.6057 203.205 23.6044C201.918 23.5634 200.697 23.0244 199.801 22.1016C198.905 21.1788 198.404 19.9446 198.404 18.6598C198.404 17.3752 198.905 16.1409 199.801 15.2181C200.697 14.2953 201.918 13.7564 203.205 13.7153H203.185Z" fill="#3B342A"/>
<path d="M143.528 13.7157C144.356 13.7139 145.169 13.917 145.899 14.3069L148.639 9.50635C147.052 8.62909 145.263 8.17774 143.448 8.19641C141.633 8.21508 139.854 8.70314 138.284 9.61289C136.715 10.5227 135.409 11.8229 134.494 13.3867C133.579 14.9505 133.087 16.7244 133.066 18.5347C133.043 20.3452 133.492 22.1303 134.37 23.7157C135.246 25.301 136.521 26.6324 138.067 27.5797C139.614 28.5269 141.381 29.0576 143.195 29.12C145.009 29.1823 146.808 28.7742 148.417 27.9354L145.858 23.0287C145.148 23.4087 144.355 23.6067 143.548 23.6047C142.884 23.6259 142.223 23.5138 141.602 23.2748C140.982 23.0359 140.417 22.675 139.939 22.2138C139.462 21.7525 139.082 21.2003 138.823 20.5898C138.564 19.9794 138.43 19.3232 138.43 18.6602C138.43 17.9972 138.564 17.341 138.823 16.7306C139.082 16.1202 139.462 15.5679 139.939 15.1066C140.417 14.6454 140.982 14.2846 141.602 14.0456C142.223 13.8067 142.884 13.6945 143.548 13.7157H143.528Z" fill="#3B342A"/>
<path d="M98.0055 8.33396C95.2794 8.38619 92.6817 9.50133 90.7695 11.4406C88.8573 13.3797 87.7825 15.9887 87.7752 18.7088C87.7679 21.4288 88.8287 24.0435 90.7306 25.9929C92.6323 27.9422 95.2242 29.0713 97.9503 29.138C99.7325 29.1976 101.48 28.6327 102.889 27.5411V29.138H108.462V18.7334C108.452 15.973 107.347 13.3287 105.387 11.3795C103.427 9.4304 100.773 8.33528 98.0055 8.33396ZM98.0055 23.8725C96.9933 23.8736 96.0035 23.5751 95.1615 23.0149C94.3196 22.4547 93.6628 21.6579 93.2749 20.7254C92.8868 19.793 92.7848 18.7666 92.9816 17.7762C93.1784 16.7858 93.6656 15.876 94.3804 15.1617C95.096 14.4474 96.0082 13.9609 97.0007 13.7635C97.9933 13.5662 99.0224 13.6669 99.957 14.0531C100.892 14.4393 101.692 15.0934 102.255 15.9328C102.817 16.7722 103.117 17.7592 103.117 18.7688C103.117 20.1215 102.578 21.4189 101.62 22.3759C100.661 23.3329 99.362 23.8713 98.0055 23.8725Z" fill="#3B342A"/>
<path d="M17.4926 1.28445L0 18.526L17.3508 35.9999L34.9954 18.4805L17.4926 1.28445Z" fill="#C10230"/>
<path d="M26.1253 14.9892C26.7135 16.4049 26.9425 17.9435 26.7922 19.4687C26.6419 20.9939 26.1167 22.4585 25.2632 23.7328C24.4097 25.0071 23.2544 26.0518 21.8994 26.7743C20.5445 27.4968 19.0318 27.8748 17.4954 27.8748C15.9591 27.8748 14.4464 27.4968 13.0915 26.7743C11.7366 26.0518 10.5811 25.0071 9.72775 23.7328C8.87428 22.4585 8.3491 20.9939 8.19872 19.4687C8.04835 17.9435 8.27742 16.4049 8.86564 14.9892C8.32669 17.2232 8.67909 19.5787 9.84843 21.5584C8.95683 18.8145 8.61234 15.6613 11.5252 12.7961C12.3672 11.9567 13.1038 11.0184 13.7188 10.0017C13.5365 11.1152 13.063 12.1611 12.346 13.0336C11.0997 14.6253 9.65085 17.5815 12.0622 22.1293C12.0622 22.1293 10.431 17.6825 12.7309 14.4535C14.9549 11.3155 14.6915 9.70354 14.6915 9.70354C14.6915 9.70354 15.811 11.6086 14.2406 14.2514C13.3863 15.6384 12.9471 17.2401 12.975 18.8677C13.0028 20.4952 13.4964 22.081 14.3976 23.4381C14.3976 23.4381 12.6651 19.5017 14.3469 16.2424C16.5557 12.0078 15.6236 9.40035 15.6236 9.40035C15.6236 9.40035 17.8272 11.553 15.8769 16.3435C15.3353 17.617 15.1233 19.0059 15.2606 20.3824C15.3977 21.7591 15.8797 23.0791 16.6622 24.2214C16.6622 24.2214 14.9904 20.3354 16.5912 16.6871C18.5568 12.1998 16.8293 9.18812 16.8293 9.18812C17.6565 10.0752 18.2375 11.1622 18.5147 12.3417C18.7919 13.5213 18.7557 14.7526 18.4099 15.914C17.2903 19.6027 17.3966 21.1289 18.0097 23.0136C18.0097 23.0136 17.655 20.6134 19.3116 16.1767C19.7392 15.0103 19.8501 13.752 19.633 12.5291C19.4159 11.3062 18.8786 10.1623 18.0755 9.21338C19.1027 9.83734 19.9262 10.7453 20.4459 11.8271C20.9657 12.909 21.1595 14.118 21.0036 15.3075C20.8618 16.7781 19.8283 18.8145 20.0512 21.1187C20.6642 17.9453 21.571 17.4197 21.9206 15.1964C22.3511 12.2504 19.955 9.48626 19.955 9.48626C21.3031 10.3057 22.3385 11.5504 22.8973 13.0231C23.4561 14.4958 23.5064 16.1124 23.0401 17.6168C21.8648 21.0783 21.8648 23.0743 21.8648 23.0743C22.878 19.4411 23.5213 19.3249 23.9824 17.2025C24.7473 13.6653 22.5791 10.6334 22.5791 10.6334C27.5792 15.3732 24.6916 21.5584 24.6916 21.5584C26.0746 19.9817 26.49 18.0211 26.2722 15.8836C26.2412 15.5828 26.1921 15.2841 26.1253 14.9892Z" fill="white"/>
<path d="M122.32 53C122.187 53 122.08 52.96 122 52.88C121.92 52.7867 121.88 52.6733 121.88 52.54V39.46C121.88 39.3133 121.92 39.2 122 39.12C122.093 39.04 122.207 39 122.34 39H122.7C122.833 39 122.94 39.04 123.02 39.12C123.1 39.2 123.14 39.3133 123.14 39.46V50.8L131.36 39.24C131.387 39.2133 131.427 39.1667 131.48 39.1C131.547 39.0333 131.647 39 131.78 39H132.2C132.333 39 132.44 39.04 132.52 39.12C132.6 39.2 132.64 39.3133 132.64 39.46V52.56C132.64 52.6933 132.6 52.8 132.52 52.88C132.44 52.96 132.333 53 132.2 53H131.84C131.707 53 131.593 52.96 131.5 52.88C131.42 52.8 131.38 52.6933 131.38 52.56V41.24L123.18 52.76C123.167 52.7867 123.127 52.8333 123.06 52.9C122.993 52.9667 122.893 53 122.76 53H122.32ZM139.892 53C139.758 53 139.652 52.96 139.572 52.88C139.492 52.8 139.452 52.6933 139.452 52.56V40.2H135.492C135.358 40.2 135.252 40.16 135.172 40.08C135.092 40 135.052 39.8933 135.052 39.76V39.46C135.052 39.3133 135.092 39.2 135.172 39.12C135.252 39.04 135.358 39 135.492 39H144.652C144.798 39 144.912 39.04 144.992 39.12C145.072 39.2 145.112 39.3133 145.112 39.46V39.76C145.112 39.8933 145.072 40 144.992 40.08C144.912 40.16 144.798 40.2 144.652 40.2H140.712V52.56C140.712 52.6933 140.672 52.8 140.592 52.88C140.512 52.96 140.398 53 140.252 53H139.892ZM146.525 53C146.418 53 146.325 52.96 146.245 52.88C146.165 52.8 146.125 52.7067 146.125 52.6C146.125 52.5333 146.138 52.46 146.165 52.38L151.225 39.4C151.278 39.2667 151.345 39.1667 151.425 39.1C151.518 39.0333 151.645 39 151.805 39H152.485C152.645 39 152.765 39.0333 152.845 39.1C152.938 39.1667 153.011 39.2667 153.065 39.4L158.125 52.38C158.151 52.46 158.165 52.5333 158.165 52.6C158.165 52.7067 158.125 52.8 158.045 52.88C157.965 52.96 157.871 53 157.765 53H157.365C157.231 53 157.131 52.9667 157.065 52.9C156.998 52.82 156.951 52.7533 156.925 52.7L155.685 49.5H148.605L147.365 52.7C147.351 52.7533 147.305 52.82 147.225 52.9C147.158 52.9667 147.058 53 146.925 53H146.525ZM149.085 48.3H155.205L152.145 40.42L149.085 48.3ZM169.552 53C169.419 53 169.312 52.96 169.232 52.88C169.152 52.8 169.112 52.6933 169.112 52.56V40.2H163.612V44.02C163.612 45.62 163.519 46.98 163.332 48.1C163.159 49.22 162.899 50.1333 162.552 50.84C162.206 51.5333 161.779 52.0533 161.272 52.4C160.766 52.7333 160.179 52.9267 159.512 52.98C159.379 52.9933 159.266 52.9533 159.172 52.86C159.092 52.7667 159.052 52.6533 159.052 52.52V52.16C159.052 51.8933 159.186 51.7467 159.452 51.72C159.879 51.6533 160.266 51.48 160.612 51.2C160.972 50.9067 161.279 50.4667 161.532 49.88C161.799 49.28 161.999 48.4867 162.132 47.5C162.279 46.5133 162.352 45.3 162.352 43.86V39.44C162.352 39.3067 162.392 39.2 162.472 39.12C162.552 39.04 162.659 39 162.792 39H169.912C170.059 39 170.172 39.04 170.252 39.12C170.332 39.2 170.372 39.3133 170.372 39.46V52.56C170.372 52.6933 170.332 52.8 170.252 52.88C170.172 52.96 170.059 53 169.912 53H169.552ZM174.566 53C174.433 53 174.326 52.96 174.246 52.88C174.166 52.7867 174.126 52.6733 174.126 52.54V39.46C174.126 39.3133 174.166 39.2 174.246 39.12C174.339 39.04 174.453 39 174.586 39H174.946C175.079 39 175.186 39.04 175.266 39.12C175.346 39.2 175.386 39.3133 175.386 39.46V50.8L183.606 39.24C183.633 39.2133 183.673 39.1667 183.726 39.1C183.793 39.0333 183.893 39 184.026 39H184.446C184.579 39 184.686 39.04 184.766 39.12C184.846 39.2 184.886 39.3133 184.886 39.46V52.56C184.886 52.6933 184.846 52.8 184.766 52.88C184.686 52.96 184.579 53 184.446 53H184.086C183.953 53 183.839 52.96 183.746 52.88C183.666 52.8 183.626 52.6933 183.626 52.56V41.24L175.426 52.76C175.413 52.7867 175.373 52.8333 175.306 52.9C175.239 52.9667 175.139 53 175.006 53H174.566ZM196.918 53C196.784 53 196.671 52.96 196.578 52.88C196.498 52.8 196.458 52.6933 196.458 52.56V47.46H192.998C192.104 47.46 191.344 47.3 190.718 46.98C190.091 46.66 189.611 46.1933 189.278 45.58C188.958 44.9533 188.798 44.1867 188.798 43.28C188.798 42.5867 188.944 41.9133 189.238 41.26C189.531 40.6067 189.984 40.0667 190.598 39.64C191.224 39.2133 192.024 39 192.998 39H197.278C197.411 39 197.518 39.04 197.598 39.12C197.678 39.2 197.718 39.3067 197.718 39.44V52.56C197.718 52.6933 197.678 52.8 197.598 52.88C197.518 52.96 197.411 53 197.278 53H196.918ZM188.958 53C188.851 53 188.758 52.96 188.678 52.88C188.598 52.8 188.558 52.7067 188.558 52.6C188.558 52.5333 188.578 52.46 188.618 52.38L192.398 46.62L193.698 46.8L189.958 52.46C189.864 52.5933 189.771 52.72 189.678 52.84C189.584 52.9467 189.424 53 189.198 53H188.958ZM193.198 46.26H196.458V40.2H193.198C192.211 40.2 191.438 40.4867 190.878 41.06C190.331 41.6333 190.058 42.3933 190.058 43.34C190.058 44.3133 190.311 45.0467 190.818 45.54C191.338 46.02 192.131 46.26 193.198 46.26Z" fill="#3B342A"/>
</svg>
