<svg width="288" height="56" fill="none" xmlns="http://www.w3.org/2000/svg"><path d="M84.642.981h-5.684v28.237h5.684V.981ZM72.868 23.473a3 3 0 0 1-1.18-2.527v-6.569h3.956V8.82h-3.92V.94H66.15v20.278a8.51 8.51 0 0 0 2.572 5.796 8.552 8.552 0 0 0 5.873 2.42c.36 0 .72-.023 1.079-.07V23.58s-1.652.687-2.807-.106ZM52.635 8.334a10.443 10.443 0 0 0-7.236 3.107 10.39 10.39 0 0 0-2.994 7.268 10.39 10.39 0 0 0 2.955 7.284 10.443 10.443 0 0 0 7.22 3.145 7.642 7.642 0 0 0 4.934-1.597v1.597h5.572V18.733a10.421 10.421 0 0 0-3.073-7.352 10.475 10.475 0 0 0-7.378-3.047Zm0 15.538c-1.012 0-2.001-.299-2.843-.86a5.106 5.106 0 0 1-2.175-5.239 5.1 5.1 0 0 1 1.4-2.613 5.12 5.12 0 0 1 5.576-1.106 5.115 5.115 0 0 1 2.296 1.88 5.096 5.096 0 0 1-2.296 7.55 5.127 5.127 0 0 1-1.958.388ZM159.749 8.187c-2.076 0-4.106.614-5.832 1.764a10.472 10.472 0 0 0-3.865 4.7 10.433 10.433 0 0 0-.598 6.049 10.462 10.462 0 0 0 2.873 5.36 10.518 10.518 0 0 0 16.15-1.587 10.454 10.454 0 0 0-1.305-13.221 10.51 10.51 0 0 0-7.423-3.065Zm0 15.417c-.981 0-1.94-.29-2.756-.834a4.942 4.942 0 0 1-.751-7.611 4.96 4.96 0 0 1 5.404-1.073 4.945 4.945 0 0 1-1.897 9.518ZM258.545 9.673c-1.545-1.183-3.091-1.334-4.929-1.334-2.059.016-4.067.64-5.772 1.792a10.416 10.416 0 0 0-3.806 4.684 10.381 10.381 0 0 0 2.308 11.31 10.445 10.445 0 0 0 11.354 2.226 10.425 10.425 0 0 0 4.671-3.828 10.391 10.391 0 0 0 1.757-5.77V.84h-5.573l-.01 8.833Zm-4.985 14.149a5.128 5.128 0 0 1-2.841-.863 5.101 5.101 0 0 1-2.171-5.24 5.098 5.098 0 0 1 1.401-2.612 5.123 5.123 0 0 1 7.87.776 5.088 5.088 0 0 1-.638 6.446 5.112 5.112 0 0 1-3.621 1.493ZM232.222 16.56v12.578h5.512V16.62a3.394 3.394 0 0 1 1.131-2.04 3.413 3.413 0 0 1 2.182-.835c.29-.028.581-.028.871 0V8.293c-.258 0-.617-.025-.871-.025a8.85 8.85 0 0 0-6.062 2.4 8.808 8.808 0 0 0-2.763 5.892ZM287.203 18.708a10.684 10.684 0 0 0-2.73-7.244 10.747 10.747 0 0 0-14.392-1.455 10.692 10.692 0 0 0-4.13 6.55 10.672 10.672 0 0 0 1.378 7.615 10.72 10.72 0 0 0 6.166 4.696c2.571.743 5.328.5 7.728-.68a10.707 10.707 0 0 0 5.246-5.703h-5.73a5.93 5.93 0 0 1-4.139 1.83 5.635 5.635 0 0 1-3.105-.933 5.611 5.611 0 0 1-2.072-2.488h15.562v.116c.153-.759.227-1.53.218-2.304Zm-15.734-2.325a5.596 5.596 0 0 1 2.072-2.396 5.627 5.627 0 0 1 8.16 2.396h-10.232ZM219.279 8.187c-2.076 0-4.105.614-5.832 1.764a10.48 10.48 0 0 0-3.866 4.7 10.45 10.45 0 0 0 2.276 11.41 10.52 10.52 0 0 0 11.439 2.27 10.487 10.487 0 0 0 4.71-3.857 10.446 10.446 0 0 0-1.305-13.22 10.509 10.509 0 0 0-7.422-3.067Zm0 15.417a4.97 4.97 0 0 1-2.757-.831 4.935 4.935 0 0 1-.757-7.612 4.962 4.962 0 0 1 5.406-1.075 4.957 4.957 0 0 1 2.226 1.822 4.94 4.94 0 0 1-.613 6.247 4.946 4.946 0 0 1-3.505 1.45ZM181.674 8.268a8.85 8.85 0 0 0-6.061 2.4 8.81 8.81 0 0 0-2.764 5.892v12.578h5.502V16.62a3.421 3.421 0 0 1 3.323-2.875 3.31 3.31 0 0 1 3.299 2.784v12.562h5.536V16.56a8.815 8.815 0 0 0-2.767-5.895 8.857 8.857 0 0 0-6.068-2.397ZM119.581 16.024c-3.992-1.344-2.568-3.931-.441-3.689 1.389.157 1.911 1.784 1.911 1.784l4.619-1.814c-1.013-2.557-3.759-4.325-7.011-4.325-4.108 0-7.427 2.91-7.427 6.503 0 1.738.375 3.679 3.258 5.053 2.882 1.375 6.276 1.572 6.039 3.912-.229 2.097-2.959 1.515-3.43 1.379a3.171 3.171 0 0 1-2.072-2.314l-4.336 1.596c1.19 3.907 4.812 5.286 8.069 5.286 4.104 0 7.518-2.91 7.518-6.493a6.489 6.489 0 0 0-2.057-4.68s-.659-.848-4.64-2.198ZM203.185 13.715c.82.002 1.628.205 2.351.591l2.746-4.8a10.522 10.522 0 0 0-10.365.097 10.465 10.465 0 0 0-5.228 8.927 10.458 10.458 0 0 0 5.005 9.053 10.52 10.52 0 0 0 10.359.352l-2.533-4.907a4.904 4.904 0 0 1-2.315.576 4.965 4.965 0 0 1-3.404-1.502 4.94 4.94 0 0 1 0-6.884 4.966 4.966 0 0 1 3.404-1.503h-.02ZM143.528 13.716a5.005 5.005 0 0 1 2.371.59l2.74-4.8a10.508 10.508 0 0 0-14.145 3.88 10.433 10.433 0 0 0-1.428 5.149 10.42 10.42 0 0 0 1.304 5.18 10.477 10.477 0 0 0 3.697 3.865 10.513 10.513 0 0 0 10.35.355l-2.559-4.906c-.71.38-1.503.578-2.31.576a4.973 4.973 0 0 1-3.609-1.391 4.949 4.949 0 0 1-1.509-3.554 4.94 4.94 0 0 1 1.509-3.553 4.968 4.968 0 0 1 3.609-1.391h-.02ZM98.005 8.334a10.443 10.443 0 0 0-7.236 3.107 10.39 10.39 0 0 0-2.994 7.268 10.39 10.39 0 0 0 2.956 7.284 10.444 10.444 0 0 0 7.22 3.145 7.648 7.648 0 0 0 4.938-1.597v1.597h5.573V18.733a10.424 10.424 0 0 0-3.075-7.354 10.475 10.475 0 0 0-7.382-3.045Zm0 15.538a5.125 5.125 0 0 1-2.843-.857 5.092 5.092 0 0 1-.781-7.853 5.124 5.124 0 0 1 7.874.77 5.098 5.098 0 0 1-.635 6.444 5.122 5.122 0 0 1-3.615 1.496Z" fill="#3B342A"/><path d="M17.493 1.284 0 18.526 17.35 36l17.645-17.52L17.493 1.284Z" fill="#C10230"/><path d="M26.125 14.99a9.298 9.298 0 0 1-.862 8.743 9.334 9.334 0 0 1-3.364 3.041 9.36 9.36 0 0 1-12.171-3.041 9.303 9.303 0 0 1-.862-8.744 8.84 8.84 0 0 0 .982 6.57c-.891-2.745-1.236-5.898 1.677-8.763a14.66 14.66 0 0 0 2.194-2.794 6.405 6.405 0 0 1-1.373 3.032c-1.246 1.591-2.695 4.547-.284 9.095 0 0-1.631-4.447.669-7.676 2.224-3.137 1.96-4.75 1.96-4.75s1.12 1.906-.45 4.548a8.524 8.524 0 0 0 .157 9.187s-1.733-3.936-.051-7.196c2.209-4.234 1.277-6.842 1.277-6.842s2.203 2.153.253 6.943a8.232 8.232 0 0 0 .785 7.878s-1.672-3.886-.07-7.534c1.965-4.487.237-7.499.237-7.499a6.959 6.959 0 0 1 1.58 6.726c-1.119 3.689-1.012 5.215-.4 7.1 0 0-.354-2.4 1.303-6.837a7.027 7.027 0 0 0-1.236-6.964 6.2 6.2 0 0 1 2.37 2.614c.52 1.082.713 2.291.558 3.48-.142 1.471-1.176 3.507-.953 5.812.613-3.174 1.52-3.7 1.87-5.923.43-2.946-1.966-5.71-1.966-5.71a7.078 7.078 0 0 1 2.942 3.537c.56 1.473.61 3.09.143 4.594-1.175 3.461-1.175 5.457-1.175 5.457 1.013-3.633 1.656-3.75 2.117-5.872.765-3.537-1.403-6.569-1.403-6.569 5 4.74 2.113 10.925 2.113 10.925 1.383-1.576 1.798-3.537 1.58-5.674-.03-.301-.08-.6-.147-.895Z" fill="#fff"/><path d="M122.32 53a.433.433 0 0 1-.32-.12.505.505 0 0 1-.12-.34V39.46c0-.147.04-.26.12-.34a.505.505 0 0 1 .34-.12h.36c.133 0 .24.04.32.12.08.08.12.193.12.34V50.8l8.22-11.56c.027-.027.067-.073.12-.14.067-.067.167-.1.3-.1h.42c.133 0 .24.04.32.12.08.08.12.193.12.34v13.1c0 .133-.04.24-.12.32a.433.433 0 0 1-.32.12h-.36a.505.505 0 0 1-.34-.12.433.433 0 0 1-.12-.32V41.24l-8.2 11.52a.707.707 0 0 1-.12.14c-.067.067-.167.1-.3.1h-.44Zm17.572 0a.431.431 0 0 1-.32-.12.433.433 0 0 1-.12-.32V40.2h-3.96a.431.431 0 0 1-.32-.12.433.433 0 0 1-.12-.32v-.3c0-.147.04-.26.12-.34.08-.08.186-.12.32-.12h9.16c.146 0 .26.04.34.12.08.08.12.193.12.34v.3c0 .133-.04.24-.12.32a.46.46 0 0 1-.34.12h-3.94v12.36c0 .133-.04.24-.12.32a.46.46 0 0 1-.34.12h-.36Zm6.633 0c-.107 0-.2-.04-.28-.12a.384.384 0 0 1-.12-.28c0-.067.013-.14.04-.22l5.06-12.98a.736.736 0 0 1 .2-.3c.093-.067.22-.1.38-.1h.68c.16 0 .28.033.36.1a.662.662 0 0 1 .22.3l5.06 12.98a.72.72 0 0 1 .04.22c0 .107-.04.2-.12.28a.385.385 0 0 1-.28.12h-.4c-.134 0-.234-.033-.3-.1a1.07 1.07 0 0 1-.14-.2l-1.24-3.2h-7.08l-1.24 3.2a.503.503 0 0 1-.14.2c-.067.067-.167.1-.3.1h-.4Zm2.56-4.7h6.12l-3.06-7.88-3.06 7.88Zm20.467 4.7a.433.433 0 0 1-.32-.12.433.433 0 0 1-.12-.32V40.2h-5.5v3.82c0 1.6-.093 2.96-.28 4.08-.173 1.12-.433 2.033-.78 2.74-.346.693-.773 1.213-1.28 1.56-.506.333-1.093.527-1.76.58a.403.403 0 0 1-.34-.12.505.505 0 0 1-.12-.34v-.36c0-.267.134-.413.4-.44.427-.067.814-.24 1.16-.52.36-.293.667-.733.92-1.32.267-.6.467-1.393.6-2.38.147-.987.22-2.2.22-3.64v-4.42c0-.133.04-.24.12-.32.08-.08.187-.12.32-.12h7.12c.147 0 .26.04.34.12.08.08.12.193.12.34v13.1c0 .133-.04.24-.12.32-.08.08-.193.12-.34.12h-.36Zm5.014 0a.433.433 0 0 1-.32-.12.505.505 0 0 1-.12-.34V39.46c0-.147.04-.26.12-.34a.505.505 0 0 1 .34-.12h.36c.133 0 .24.04.32.12.08.08.12.193.12.34V50.8l8.22-11.56c.027-.027.067-.073.12-.14.067-.067.167-.1.3-.1h.42c.133 0 .24.04.32.12.08.08.12.193.12.34v13.1c0 .133-.04.24-.12.32a.433.433 0 0 1-.32.12h-.36a.505.505 0 0 1-.34-.12.433.433 0 0 1-.12-.32V41.24l-8.2 11.52a.707.707 0 0 1-.12.14c-.067.067-.167.1-.3.1h-.44Zm22.352 0a.503.503 0 0 1-.34-.12.433.433 0 0 1-.12-.32v-5.1h-3.46c-.894 0-1.654-.16-2.28-.48a3.316 3.316 0 0 1-1.44-1.4c-.32-.627-.48-1.393-.48-2.3 0-.693.146-1.367.44-2.02a3.882 3.882 0 0 1 1.36-1.62c.626-.427 1.426-.64 2.4-.64h4.28c.133 0 .24.04.32.12.08.08.12.187.12.32v13.12c0 .133-.04.24-.12.32a.433.433 0 0 1-.32.12h-.36Zm-7.96 0c-.107 0-.2-.04-.28-.12a.384.384 0 0 1-.12-.28c0-.067.02-.14.06-.22l3.78-5.76 1.3.18-3.74 5.66c-.094.133-.187.26-.28.38-.094.107-.254.16-.48.16h-.24Zm4.24-6.74h3.26V40.2h-3.26c-.987 0-1.76.287-2.32.86-.547.573-.82 1.333-.82 2.28 0 .973.253 1.707.76 2.2.52.48 1.313.72 2.38.72Z" fill="#3B342A"/></svg>