<svg width="280" height="53" fill="none" xmlns="http://www.w3.org/2000/svg"><path d="M82.234.977h-5.522v27.434h5.522V.977ZM70.796 22.83a2.912 2.912 0 0 1-1.147-2.455v-6.383h3.844v-5.4h-3.81V.938H64.27V20.64a8.268 8.268 0 0 0 2.499 5.631 8.31 8.31 0 0 0 5.706 2.351c.35 0 .7-.023 1.048-.068v-5.622s-1.604.668-2.726-.103ZM51.138 8.12a10.146 10.146 0 0 0-7.03 3.02 10.096 10.096 0 0 0-2.91 7.06 10.095 10.095 0 0 0 2.872 7.078 10.146 10.146 0 0 0 7.014 3.055 7.424 7.424 0 0 0 4.794-1.551v1.551h5.414V18.225a10.125 10.125 0 0 0-2.986-7.144 10.176 10.176 0 0 0-7.168-2.96Zm0 15.098a4.98 4.98 0 0 1-2.762-.836 4.946 4.946 0 0 1-.753-7.63 4.975 4.975 0 0 1 5.417-1.074 4.97 4.97 0 0 1 2.231 1.826 4.95 4.95 0 0 1-2.23 7.336c-.604.25-1.25.378-1.903.378ZM155.206 7.978c-2.017 0-3.989.596-5.666 1.714a10.18 10.18 0 0 0-3.756 4.566 10.143 10.143 0 0 0-.581 5.877 10.17 10.17 0 0 0 2.791 5.208 10.222 10.222 0 0 0 11.114 2.205 10.193 10.193 0 0 0 4.577-3.746 10.15 10.15 0 0 0-1.267-12.846 10.2 10.2 0 0 0-7.212-2.978Zm0 14.979a4.83 4.83 0 0 1-2.678-.81 4.806 4.806 0 0 1-2.049-4.934 4.818 4.818 0 0 1 6.57-3.503 4.8 4.8 0 0 1 .001 8.882 4.82 4.82 0 0 1-1.844.365ZM251.192 9.422c-1.501-1.15-3.003-1.296-4.789-1.296-2 .015-3.952.62-5.608 1.74a10.11 10.11 0 0 0-3.697 4.552 10.095 10.095 0 0 0 2.242 10.988 10.16 10.16 0 0 0 11.031 2.163 10.1 10.1 0 0 0 6.245-9.325V.84h-5.415l-.009 8.582Zm-4.843 13.746a4.982 4.982 0 0 1-2.761-.838 4.955 4.955 0 0 1 1.798-8.984 4.98 4.98 0 0 1 5.101 2.11 4.95 4.95 0 0 1-2.234 7.336 4.987 4.987 0 0 1-1.904.376ZM225.618 16.113v12.22h5.354v-12.16c.121-.77.51-1.472 1.099-1.983a3.317 3.317 0 0 1 2.121-.811c.281-.027.564-.027.846 0V8.08c-.251 0-.6-.024-.846-.024-2.19 0-4.297.834-5.89 2.331a8.558 8.558 0 0 0-2.684 5.725ZM279.035 18.2a10.382 10.382 0 0 0-2.652-7.038A10.441 10.441 0 0 0 262.4 9.748a10.373 10.373 0 0 0-2.674 13.763 10.414 10.414 0 0 0 5.991 4.562c2.497.722 5.176.486 7.508-.662a10.403 10.403 0 0 0 5.096-5.54h-5.567a5.758 5.758 0 0 1-4.021 1.778 5.471 5.471 0 0 1-5.03-3.324h15.12v.113c.148-.737.22-1.487.212-2.238Zm-15.287-2.259a5.436 5.436 0 0 1 2.013-2.328 5.472 5.472 0 0 1 5.914 0 5.438 5.438 0 0 1 2.014 2.328h-9.941ZM213.042 7.978a10.22 10.22 0 0 0-5.666 1.714 10.18 10.18 0 0 0-3.756 4.566 10.151 10.151 0 0 0 2.211 11.085 10.22 10.22 0 0 0 11.114 2.205 10.19 10.19 0 0 0 4.576-3.746 10.15 10.15 0 0 0-1.267-12.845 10.213 10.213 0 0 0-7.212-2.98Zm0 14.979a4.826 4.826 0 0 1-4.455-2.964 4.794 4.794 0 0 1 1.041-5.24 4.827 4.827 0 0 1 7.415.726 4.796 4.796 0 0 1-.595 6.07 4.81 4.81 0 0 1-3.406 1.408ZM176.507 8.057a8.598 8.598 0 0 0-5.889 2.331 8.56 8.56 0 0 0-2.685 5.725v12.22h5.345v-12.16a3.324 3.324 0 0 1 3.229-2.793 3.22 3.22 0 0 1 3.205 2.704v12.205h5.379V16.113a8.566 8.566 0 0 0-2.689-5.727 8.605 8.605 0 0 0-5.895-2.33ZM116.18 15.592c-3.878-1.305-2.495-3.82-.428-3.584 1.349.153 1.856 1.734 1.856 1.734l4.488-1.763c-.984-2.484-3.652-4.202-6.811-4.202-3.992 0-7.216 2.827-7.216 6.318 0 1.689.364 3.574 3.165 4.91 2.8 1.335 6.097 1.526 5.867 3.8-.222 2.037-2.875 1.472-3.332 1.34a3.085 3.085 0 0 1-2.014-2.249l-4.213 1.552c1.157 3.795 4.676 5.135 7.841 5.135 3.986 0 7.304-2.828 7.304-6.309a6.293 6.293 0 0 0-1.999-4.546s-.64-.825-4.508-2.136ZM197.406 13.35a4.863 4.863 0 0 1 2.284.574l2.668-4.664a10.22 10.22 0 0 0-10.07.094 10.17 10.17 0 0 0-5.079 8.673 10.144 10.144 0 0 0 1.267 5.038 10.183 10.183 0 0 0 3.596 3.757 10.217 10.217 0 0 0 10.064.342l-2.461-4.767a4.767 4.767 0 0 1-2.249.56 4.821 4.821 0 0 1-3.307-1.46 4.798 4.798 0 0 1 0-6.688 4.822 4.822 0 0 1 3.307-1.46h-.02ZM139.445 13.35a4.866 4.866 0 0 1 2.305.574l2.662-4.664a10.213 10.213 0 0 0-13.743 3.77 10.142 10.142 0 0 0-.121 10.035 10.188 10.188 0 0 0 8.574 5.25c1.762.061 3.511-.335 5.073-1.15l-2.485-4.767c-.69.369-1.461.561-2.245.56a4.828 4.828 0 0 1-3.506-1.352 4.794 4.794 0 0 1 0-6.905 4.816 4.816 0 0 1 3.506-1.351h-.02ZM95.218 8.12a10.146 10.146 0 0 0-7.03 3.02 10.096 10.096 0 0 0-2.91 7.06 10.095 10.095 0 0 0 2.872 7.078 10.146 10.146 0 0 0 7.014 3.055 7.43 7.43 0 0 0 4.799-1.551v1.551h5.414V18.225a10.122 10.122 0 0 0-2.988-7.145 10.176 10.176 0 0 0-7.17-2.96Zm0 15.098a4.98 4.98 0 0 1-2.763-.834 4.947 4.947 0 0 1-.759-7.63 4.978 4.978 0 0 1 7.65.75 4.951 4.951 0 0 1-.616 6.26 4.978 4.978 0 0 1-3.512 1.454Z" fill="#000"/><path d="M16.995 1.272 0 18.023 16.857 35 34 17.979 16.995 1.272Z" fill="#C10230"/><path d="M25.382 14.587a9.034 9.034 0 0 1-.837 8.495 9.068 9.068 0 0 1-3.268 2.955A9.094 9.094 0 0 1 9.45 23.082a9.038 9.038 0 0 1-.838-8.495 8.588 8.588 0 0 0 .955 6.382c-.866-2.666-1.2-5.73 1.63-8.513a14.239 14.239 0 0 0 2.13-2.715 6.223 6.223 0 0 1-1.333 2.946c-1.211 1.546-2.619 4.418-.276 8.837 0 0-1.585-4.32.65-7.458 2.16-3.049 1.905-4.615 1.905-4.615s1.087 1.851-.438 4.419a8.28 8.28 0 0 0 .152 8.925s-1.683-3.824-.05-6.99c2.147-4.115 1.241-6.648 1.241-6.648s2.141 2.091.246 6.745a8 8 0 0 0 .763 7.654s-1.624-3.775-.069-7.32c1.91-4.36.232-7.285.232-7.285a6.76 6.76 0 0 1 1.535 6.534c-1.087 3.584-.984 5.067-.389 6.898 0 0-.344-2.332 1.265-6.642a6.828 6.828 0 0 0-1.2-6.766 6.024 6.024 0 0 1 2.302 2.54 6.006 6.006 0 0 1 .542 3.381c-.138 1.429-1.142 3.407-.925 5.646.595-3.083 1.476-3.594 1.816-5.754.418-2.862-1.91-5.548-1.91-5.548a6.877 6.877 0 0 1 2.859 3.437 6.857 6.857 0 0 1 .139 4.463c-1.142 3.363-1.142 5.302-1.142 5.302.984-3.53 1.61-3.643 2.057-5.705.744-3.436-1.363-6.382-1.363-6.382 4.858 4.605 2.052 10.614 2.052 10.614 1.344-1.532 1.748-3.437 1.536-5.513a7.362 7.362 0 0 0-.143-.87Z" fill="#fff"/><path d="M118.32 50a.433.433 0 0 1-.32-.12.433.433 0 0 1-.12-.32v-13.1c0-.147.04-.26.12-.34.08-.08.187-.12.32-.12h4.86c.933 0 1.74.16 2.42.48.693.307 1.227.767 1.6 1.38.387.613.58 1.373.58 2.28 0 .907-.193 1.667-.58 2.28-.373.613-.907 1.08-1.6 1.4-.68.307-1.487.46-2.42.46h-4.04v5.28c0 .133-.04.24-.12.32-.08.08-.193.12-.34.12h-.36Zm.82-6.92h3.94c1.16 0 2.02-.253 2.58-.76.573-.507.86-1.233.86-2.18 0-.947-.287-1.673-.86-2.18-.56-.507-1.42-.76-2.58-.76h-3.94v5.88Zm16.039 7.12c-1.107 0-2.047-.193-2.82-.58-.774-.4-1.367-1.007-1.78-1.82-.414-.827-.64-1.867-.68-3.12a72.03 72.03 0 0 1 0-3.36c.04-1.24.28-2.267.72-3.08.44-.827 1.046-1.44 1.82-1.84.786-.4 1.7-.6 2.74-.6 1.04 0 1.946.2 2.72.6.786.4 1.4 1.013 1.84 1.84.453.813.693 1.84.72 3.08.026.6.04 1.16.04 1.68s-.014 1.08-.04 1.68c-.027 1.253-.254 2.293-.68 3.12-.414.813-1.007 1.42-1.78 1.82-.774.387-1.714.58-2.82.58Zm0-1.2c1.146 0 2.086-.347 2.82-1.04.746-.693 1.146-1.82 1.2-3.38.026-.6.04-1.127.04-1.58 0-.453-.014-.98-.04-1.58-.027-1.04-.22-1.887-.58-2.54-.347-.653-.82-1.127-1.42-1.42-.587-.307-1.26-.46-2.02-.46-.747 0-1.42.153-2.02.46-.587.293-1.06.767-1.42 1.42-.347.653-.54 1.5-.58 2.54-.014.6-.02 1.127-.02 1.58 0 .453.006.98.02 1.58.053 1.56.453 2.687 1.2 3.38.746.693 1.686 1.04 2.82 1.04Zm13.242 1.2c-1.214 0-2.207-.233-2.98-.7a4.438 4.438 0 0 1-1.7-1.94c-.374-.813-.58-1.74-.62-2.78a69.191 69.191 0 0 1-.02-1.76c0-.627.006-1.227.02-1.8.04-1.04.246-1.967.62-2.78a4.297 4.297 0 0 1 1.7-1.94c.773-.467 1.766-.7 2.98-.7.946 0 1.753.133 2.42.4.666.267 1.206.62 1.62 1.06.426.427.74.893.94 1.4.213.493.333.98.36 1.46a.328.328 0 0 1-.12.3c-.08.067-.18.1-.3.1h-.4a.492.492 0 0 1-.28-.08c-.08-.067-.134-.18-.16-.34-.254-1.187-.734-2-1.44-2.44-.694-.44-1.574-.66-2.64-.66-1.214 0-2.18.347-2.9 1.04-.707.68-1.087 1.773-1.14 3.28a47.048 47.048 0 0 0 0 3.36c.053 1.507.433 2.607 1.14 3.3.72.68 1.686 1.02 2.9 1.02 1.066 0 1.946-.22 2.64-.66.706-.44 1.186-1.253 1.44-2.44.026-.16.08-.267.16-.32.08-.067.173-.1.28-.1h.4c.12 0 .22.04.3.12.093.067.133.16.12.28-.027.48-.147.973-.36 1.48-.2.493-.514.96-.94 1.4-.414.427-.954.773-1.62 1.04-.667.267-1.474.4-2.42.4Zm13.027 0c-1.213 0-2.207-.233-2.98-.7a4.438 4.438 0 0 1-1.7-1.94c-.373-.813-.58-1.74-.62-2.78a79.429 79.429 0 0 1 0-3.56c.04-1.04.247-1.967.62-2.78a4.297 4.297 0 0 1 1.7-1.94c.773-.467 1.767-.7 2.98-.7.947 0 1.753.133 2.42.4s1.207.62 1.62 1.06c.427.427.74.893.94 1.4.213.493.333.98.36 1.46a.328.328 0 0 1-.12.3c-.08.067-.18.1-.3.1h-.4a.492.492 0 0 1-.28-.08c-.08-.067-.133-.18-.16-.34-.253-1.187-.733-2-1.44-2.44-.693-.44-1.573-.66-2.64-.66-1.213 0-2.18.347-2.9 1.04-.707.68-1.087 1.773-1.14 3.28a47.048 47.048 0 0 0 0 3.36c.053 1.507.433 2.607 1.14 3.3.72.68 1.687 1.02 2.9 1.02 1.067 0 1.947-.22 2.64-.66.707-.44 1.187-1.253 1.44-2.44.027-.16.08-.267.16-.32.08-.067.173-.1.28-.1h.4c.12 0 .22.04.3.12.093.067.133.16.12.28-.027.48-.147.973-.36 1.48-.2.493-.513.96-.94 1.4-.413.427-.953.773-1.62 1.04-.667.267-1.473.4-2.42.4Zm8.727-.2a.433.433 0 0 1-.32-.12.505.505 0 0 1-.12-.34V36.46c0-.147.04-.26.12-.34a.506.506 0 0 1 .34-.12h.36c.134 0 .24.04.32.12.08.08.12.193.12.34V47.8l8.22-11.56c.027-.027.067-.073.12-.14.067-.067.167-.1.3-.1h.42c.134 0 .24.04.32.12.08.08.12.193.12.34v13.1c0 .133-.04.24-.12.32a.431.431 0 0 1-.32.12h-.36a.506.506 0 0 1-.34-.12.433.433 0 0 1-.12-.32V38.24l-8.2 11.52a.707.707 0 0 1-.12.14c-.066.067-.166.1-.3.1h-.44Zm22.352 0a.506.506 0 0 1-.34-.12.433.433 0 0 1-.12-.32v-5.1h-3.46c-.893 0-1.653-.16-2.28-.48a3.326 3.326 0 0 1-1.44-1.4c-.32-.627-.48-1.393-.48-2.3 0-.693.147-1.367.44-2.02a3.896 3.896 0 0 1 1.36-1.62c.627-.427 1.427-.64 2.4-.64h4.28c.134 0 .24.04.32.12.08.08.12.187.12.32v13.12c0 .133-.04.24-.12.32a.431.431 0 0 1-.32.12h-.36Zm-7.96 0c-.106 0-.2-.04-.28-.12a.384.384 0 0 1-.12-.28c0-.067.02-.14.06-.22l3.78-5.76 1.3.18-3.74 5.66c-.093.133-.186.26-.28.38-.093.107-.253.16-.48.16h-.24Zm4.24-6.74h3.26V37.2h-3.26c-.986 0-1.76.287-2.32.86-.546.573-.82 1.333-.82 2.28 0 .973.254 1.707.76 2.2.52.48 1.314.72 2.38.72Z" fill="#000"/></svg>