<svg width="280" height="53" viewBox="0 0 280 53" fill="none" xmlns="http://www.w3.org/2000/svg">
<path d="M82.2345 0.977123H76.7122V28.4113H82.2345V0.977123Z" fill="black"/>
<path d="M70.7956 22.8292C70.4194 22.5434 70.1184 22.1706 69.9187 21.743C69.7189 21.3154 69.6263 20.8458 69.6488 20.3746V13.9922H73.4928V8.59178H69.6833V0.937901H64.2693V20.6397C64.3451 22.7675 65.24 24.7843 66.7679 26.271C68.296 27.7576 70.3396 28.5998 72.474 28.6224C72.8245 28.6219 73.1746 28.5989 73.5223 28.5538V22.9323C73.5223 22.9323 71.9178 23.6001 70.7956 22.8292Z" fill="black"/>
<path d="M51.138 8.12082C48.4892 8.17156 45.9656 9.25499 44.1078 11.1391C42.25 13.0231 41.2057 15.5579 41.1986 18.2006C41.1915 20.8432 42.2222 23.3836 44.0699 25.2775C45.9176 27.1714 48.4354 28.2683 51.084 28.3331C52.8145 28.3904 54.5105 27.8415 55.8778 26.7817V28.3331H61.2918V18.2245C61.2827 15.5434 60.2093 12.9751 58.3063 11.0815C56.4034 9.18795 53.826 8.1234 51.138 8.12082ZM51.138 23.2175C50.1549 23.2175 49.1938 22.9267 48.3763 22.3818C47.5588 21.8369 46.9216 21.0625 46.5454 20.1564C46.1691 19.2504 46.0707 18.2534 46.2625 17.2915C46.4544 16.3296 46.9278 15.4461 47.623 14.7527C48.3183 14.0592 49.204 13.5869 50.1682 13.3956C51.1326 13.2042 52.1321 13.3025 53.0404 13.6778C53.9488 14.0531 54.7251 14.6887 55.2714 15.504C55.8176 16.3195 56.1091 17.2782 56.1091 18.2589C56.1091 18.9101 55.9805 19.5549 55.7308 20.1564C55.4809 20.758 55.1148 21.3047 54.6532 21.7651C54.1915 22.2256 53.6435 22.5908 53.0404 22.84C52.4373 23.0892 51.7909 23.2175 51.138 23.2175Z" fill="black"/>
<path d="M155.206 7.97786C153.189 7.97786 151.217 8.57446 149.54 9.69223C147.863 10.81 146.556 12.3987 145.784 14.2575C145.011 16.1163 144.81 18.1615 145.203 20.1348C145.597 22.1081 146.568 23.9207 147.994 25.3433C149.421 26.7659 151.237 27.7347 153.216 28.1273C155.194 28.5198 157.244 28.3183 159.108 27.5484C160.972 26.7784 162.564 25.4747 163.685 23.8018C164.806 22.129 165.404 20.1623 165.404 18.1503C165.405 16.8143 165.141 15.4912 164.628 14.2567C164.117 13.0222 163.365 11.9006 162.418 10.9558C161.471 10.0111 160.346 9.26186 159.109 8.75088C157.872 8.23989 156.545 7.97722 155.206 7.97786ZM155.206 22.9566C154.252 22.9566 153.321 22.6748 152.528 22.1467C151.736 21.6186 151.118 20.8678 150.754 19.9897C150.389 19.1114 150.294 18.145 150.479 17.2126C150.666 16.2803 151.125 15.4239 151.798 14.7516C152.472 14.0795 153.331 13.6218 154.265 13.4363C155.2 13.2508 156.169 13.346 157.049 13.7098C157.93 14.0736 158.682 14.6896 159.212 15.4801C159.741 16.2704 160.024 17.1997 160.024 18.1503C160.025 18.7816 159.9 19.407 159.658 19.9904C159.417 20.5738 159.061 21.1039 158.614 21.5503C158.167 21.9968 157.635 22.3508 157.05 22.5921C156.465 22.8335 155.838 22.9574 155.206 22.9566Z" fill="black"/>
<path d="M251.192 9.42161C249.691 8.2728 248.189 8.12551 246.403 8.12551C244.403 8.14102 242.451 8.74679 240.795 9.86649C239.139 10.9862 237.853 12.5697 237.098 14.4176C236.342 16.2654 236.152 18.2949 236.552 20.2504C236.951 22.2058 237.92 23.9996 239.34 25.4059C240.76 26.8121 242.564 27.7678 244.527 28.1527C246.49 28.5375 248.524 28.3342 250.371 27.5684C252.218 26.8025 253.797 25.5084 254.909 23.849C256.019 22.1898 256.614 20.2395 256.616 18.2439V0.839844H251.201L251.192 9.42161ZM246.349 23.1682C245.366 23.1672 244.405 22.8756 243.588 22.3301C242.771 21.7847 242.135 21.0099 241.76 20.1037C241.384 19.1976 241.286 18.2008 241.479 17.2392C241.671 16.2776 242.145 15.3946 242.84 14.7016C243.536 14.0087 244.422 13.5368 245.386 13.346C246.35 13.155 247.349 13.2535 248.257 13.629C249.165 14.0044 249.942 14.6399 250.487 15.4553C251.033 16.2706 251.325 17.2291 251.325 18.2096C251.325 18.8611 251.196 19.5064 250.946 20.1082C250.696 20.7102 250.329 21.257 249.867 21.7175C249.405 22.1781 248.856 22.5432 248.253 22.7922C247.649 23.041 247.002 23.1688 246.349 23.1682Z" fill="black"/>
<path d="M225.618 16.1133V28.333H230.972V16.1722C231.093 15.4029 231.482 14.7007 232.071 14.1897C232.66 13.6785 233.411 13.3913 234.192 13.3787C234.473 13.3518 234.756 13.3518 235.038 13.3787V8.08137C234.787 8.08137 234.438 8.05682 234.192 8.05682C232.002 8.0567 229.895 8.89055 228.302 10.388C226.709 11.8854 225.748 13.9333 225.618 16.1133Z" fill="black"/>
<path d="M279.035 18.1995C279.062 15.6057 278.116 13.0954 276.383 11.1619C274.649 9.22828 272.253 8.01115 269.667 7.74959C267.079 7.48803 264.488 8.20095 262.4 9.74828C260.313 11.2956 258.882 13.5655 258.387 16.112C257.892 18.6586 258.37 21.2976 259.726 23.5109C261.082 25.724 263.219 27.3513 265.717 28.0729C268.214 28.7947 270.893 28.5586 273.225 27.4112C275.557 26.2638 277.375 24.2879 278.321 21.8718H272.754C271.703 22.972 270.257 23.6112 268.733 23.649C267.661 23.6489 266.611 23.3338 265.717 22.7426C264.822 22.1515 264.121 21.3108 263.703 20.3253H278.823V20.4382C278.971 19.7014 279.043 18.951 279.035 18.1995ZM263.748 15.9411C264.18 14.9883 264.879 14.1802 265.761 13.6134C266.643 13.0466 267.67 12.7452 268.719 12.7452C269.768 12.7452 270.794 13.0466 271.675 13.6134C272.557 14.1802 273.257 14.9883 273.689 15.9411H263.748Z" fill="black"/>
<path d="M213.042 7.97786C211.025 7.97786 209.054 8.57446 207.376 9.69223C205.699 10.81 204.392 12.3987 203.62 14.2575C202.849 16.1163 202.646 18.1615 203.04 20.1348C203.433 22.1081 204.405 23.9207 205.831 25.3433C207.257 26.7659 209.075 27.7348 211.053 28.1272C213.031 28.5198 215.082 28.3183 216.945 27.5484C218.808 26.7784 220.401 25.4747 221.521 23.8018C222.642 22.129 223.24 20.1623 223.24 18.1503C223.24 15.4524 222.166 12.865 220.254 10.9573C218.341 9.04959 215.747 7.97786 213.042 7.97786ZM213.042 22.9566C212.089 22.9576 211.157 22.6766 210.364 22.149C209.571 21.6215 208.952 20.8712 208.587 19.993C208.221 19.1149 208.125 18.1483 208.31 17.2157C208.496 16.283 208.955 15.4261 209.628 14.7534C210.302 14.0808 211.161 13.6225 212.095 13.4367C213.03 13.2508 213.999 13.3457 214.88 13.7093C215.761 14.0729 216.513 14.689 217.043 15.4795C217.573 16.2701 217.856 17.1995 217.856 18.1503C217.857 18.7813 217.732 19.4061 217.49 19.9892C217.25 20.5724 216.895 21.1023 216.448 21.5486C216.001 21.995 215.47 22.3491 214.885 22.5907C214.301 22.8323 213.675 22.9566 213.042 22.9566Z" fill="black"/>
<path d="M176.507 8.05683C174.318 8.0567 172.211 8.89055 170.618 10.388C169.024 11.8854 168.064 13.9333 167.933 16.1133V28.333H173.278V16.1722C173.401 15.4021 173.792 14.6997 174.383 14.1888C174.973 13.6778 175.725 13.391 176.507 13.3787C177.278 13.3726 178.025 13.6422 178.612 14.1386C179.2 14.6349 179.59 15.3251 179.712 16.0839V28.2887H185.091V16.1133C184.959 13.932 183.997 11.8834 182.402 10.3859C180.807 8.88851 178.698 8.05537 176.507 8.05683Z" fill="black"/>
<path d="M116.18 15.5925C112.302 14.2866 113.685 11.7729 115.752 12.0085C117.101 12.1607 117.608 13.7416 117.608 13.7416L122.096 11.9791C121.112 9.49491 118.444 7.77659 115.285 7.77659C111.293 7.77659 108.069 10.6045 108.069 14.0951C108.069 15.7839 108.433 17.6692 111.234 19.0045C114.034 20.3399 117.331 20.5314 117.101 22.8045C116.879 24.842 114.226 24.2773 113.769 24.1448C113.268 23.9732 112.82 23.6764 112.468 23.2826C112.115 22.889 111.87 22.4116 111.755 21.8963L107.542 23.4477C108.699 27.2427 112.218 28.5829 115.383 28.5829C119.369 28.5829 122.687 25.7551 122.687 22.2743C122.679 21.4211 122.499 20.5781 122.155 19.7968C121.811 19.0153 121.312 18.3115 120.688 17.7281C120.688 17.7281 120.048 16.9033 116.18 15.5925Z" fill="black"/>
<path d="M197.406 13.3491C198.203 13.3506 198.988 13.5479 199.69 13.9235L202.358 9.25951C200.814 8.40462 199.076 7.96387 197.311 7.98037C195.546 7.99687 193.815 8.47006 192.288 9.35366C190.761 10.2372 189.49 11.501 188.601 13.0213C187.71 14.5416 187.23 16.2663 187.209 18.0269C187.187 19.7874 187.623 21.5235 188.476 23.0652C189.329 24.6069 190.567 25.9015 192.072 26.8224C193.576 27.7433 195.295 28.2589 197.059 28.3189C198.823 28.3789 200.573 27.9811 202.136 27.1644L199.675 22.3972C198.983 22.7659 198.21 22.9582 197.426 22.9569C196.175 22.9171 194.989 22.3935 194.119 21.4969C193.248 20.6003 192.762 19.4012 192.762 18.153C192.762 16.9049 193.248 15.7057 194.119 14.8092C194.989 13.9126 196.175 13.389 197.426 13.3491H197.406Z" fill="black"/>
<path d="M139.445 13.3495C140.25 13.3477 141.041 13.5451 141.75 13.9239L144.412 9.25987C142.869 8.40755 141.132 7.96904 139.368 7.98718C137.605 8.00532 135.876 8.4795 134.351 9.36337C132.827 10.2473 131.558 11.5106 130.669 13.0299C129.78 14.5492 129.302 16.2726 129.281 18.0315C129.259 19.7904 129.696 21.5248 130.548 23.0651C131.4 24.6053 132.638 25.8988 134.14 26.8192C135.644 27.7394 137.36 28.2551 139.122 28.3157C140.884 28.3762 142.633 27.9797 144.195 27.1647L141.71 22.3976C141.02 22.7668 140.249 22.9592 139.465 22.9573C138.82 22.9779 138.178 22.8689 137.575 22.6367C136.972 22.4046 136.423 22.054 135.959 21.6059C135.495 21.1577 135.126 20.6213 134.875 20.0281C134.623 19.435 134.493 18.7975 134.493 18.1534C134.493 17.5093 134.623 16.8717 134.875 16.2786C135.126 15.6856 135.495 15.149 135.959 14.7009C136.423 14.2527 136.972 13.9022 137.575 13.67C138.178 13.4379 138.82 13.3289 139.465 13.3495H139.445Z" fill="black"/>
<path d="M95.2181 8.12082C92.5695 8.17156 90.0457 9.25499 88.1879 11.1391C86.3301 13.0231 85.2858 15.5579 85.2787 18.2006C85.2716 20.8432 86.3023 23.3836 88.1501 25.2775C89.9977 27.1714 92.5159 28.2683 95.1645 28.3331C96.8959 28.3911 98.5938 27.8422 99.9626 26.7817V28.3331H105.377V18.2245C105.368 15.5426 104.294 12.9735 102.389 11.0797C100.485 9.18608 97.9066 8.1221 95.2181 8.12082ZM95.2181 23.2175C94.2347 23.2185 93.273 22.9285 92.455 22.3842C91.637 21.8399 90.9989 21.0658 90.622 20.1599C90.245 19.2539 90.1458 18.2567 90.3371 17.2945C90.5283 16.3323 91.0017 15.4484 91.6961 14.7544C92.3914 14.0604 93.2776 13.5877 94.2419 13.396C95.2063 13.2042 96.2061 13.3021 97.1141 13.6773C98.023 14.0525 98.8001 14.688 99.3464 15.5036C99.8926 16.3191 100.184 17.278 100.184 18.2589C100.184 19.5731 99.6608 20.8336 98.7301 21.7634C97.7985 22.6932 96.536 23.2162 95.2181 23.2175Z" fill="black"/>
<path d="M16.9951 1.27181L0 18.023L16.8573 34.9999L34.0001 17.9787L16.9951 1.27181Z" fill="#C10230"/>
<path d="M25.3822 14.5867C25.9537 15.9622 26.1762 17.4571 26.0302 18.9389C25.8841 20.4207 25.3738 21.8436 24.5447 23.0817C23.7155 24.3198 22.593 25.3348 21.2766 26.0367C19.9602 26.7387 18.4905 27.1059 16.9978 27.1059C15.5052 27.1059 14.0355 26.7387 12.7191 26.0367C11.4028 25.3348 10.2802 24.3198 9.45107 23.0817C8.62187 21.8436 8.11163 20.4207 7.96553 18.9389C7.81943 17.4571 8.04199 15.9622 8.61348 14.5867C8.08986 16.7572 8.43224 19.0457 9.56832 20.9691C8.70207 18.3033 8.36738 15.2397 11.1974 12.456C12.0155 11.6405 12.7311 10.7289 13.3286 9.74111C13.1515 10.823 12.6914 11.8391 11.9948 12.6868C10.784 14.2333 9.37635 17.1053 11.7192 21.5238C11.7192 21.5238 10.1343 17.2035 12.3688 14.0663C14.5296 11.0175 14.2736 9.45145 14.2736 9.45145C14.2736 9.45145 15.3613 11.3023 13.8355 13.87C13.0055 15.2175 12.5789 16.7736 12.606 18.355C12.633 19.9362 13.1125 21.4769 13.9881 22.7954C13.9881 22.7954 12.3049 18.9709 13.9389 15.8044C16.0848 11.6902 15.1793 9.15688 15.1793 9.15688C15.1793 9.15688 17.3202 11.2483 15.4253 15.9025C14.8991 17.1398 14.6932 18.4893 14.8265 19.8266C14.9598 21.1641 15.428 22.4466 16.1883 23.5564C16.1883 23.5564 14.564 19.781 16.1193 16.2364C18.029 11.8767 16.3507 8.95069 16.3507 8.95069C17.1543 9.8125 17.7188 10.8686 17.9881 12.0146C18.2574 13.1606 18.2223 14.3569 17.8863 15.4852C16.7985 19.0691 16.9018 20.5518 17.4974 22.383C17.4974 22.383 17.1529 20.051 18.7624 15.7405C19.1778 14.6073 19.2855 13.3847 19.0746 12.1967C18.8637 11.0085 18.3416 9.89717 17.5614 8.97523C18.5594 9.58144 19.3594 10.4636 19.8644 11.5147C20.3694 12.5657 20.5576 13.7404 20.4062 14.8961C20.2684 16.3248 19.2644 18.3033 19.4809 20.5419C20.0765 17.4588 20.9575 16.9482 21.2971 14.7881C21.7154 11.9258 19.3874 9.24034 19.3874 9.24034C20.6972 10.0365 21.7031 11.2458 22.246 12.6765C22.789 14.1074 22.8378 15.6781 22.3848 17.1397C21.243 20.5027 21.243 22.4419 21.243 22.4419C22.2273 18.912 22.8524 18.7991 23.3003 16.7371C24.0435 13.3005 21.9369 10.3548 21.9369 10.3548C26.7948 14.9599 23.9893 20.9691 23.9893 20.9691C25.333 19.4373 25.7366 17.5324 25.525 15.4557C25.4948 15.1635 25.4471 14.8733 25.3822 14.5867Z" fill="white"/>
<path d="M118.32 50C118.187 50 118.08 49.96 118 49.88C117.92 49.8 117.88 49.6933 117.88 49.56V36.46C117.88 36.3133 117.92 36.2 118 36.12C118.08 36.04 118.187 36 118.32 36H123.18C124.113 36 124.92 36.16 125.6 36.48C126.293 36.7867 126.827 37.2467 127.2 37.86C127.587 38.4733 127.78 39.2333 127.78 40.14C127.78 41.0467 127.587 41.8067 127.2 42.42C126.827 43.0333 126.293 43.5 125.6 43.82C124.92 44.1267 124.113 44.28 123.18 44.28H119.14V49.56C119.14 49.6933 119.1 49.8 119.02 49.88C118.94 49.96 118.827 50 118.68 50H118.32ZM119.14 43.08H123.08C124.24 43.08 125.1 42.8267 125.66 42.32C126.233 41.8133 126.52 41.0867 126.52 40.14C126.52 39.1933 126.233 38.4667 125.66 37.96C125.1 37.4533 124.24 37.2 123.08 37.2H119.14V43.08ZM135.179 50.2C134.072 50.2 133.132 50.0067 132.359 49.62C131.585 49.22 130.992 48.6133 130.579 47.8C130.165 46.9733 129.939 45.9333 129.899 44.68C129.885 44.08 129.879 43.52 129.879 43C129.879 42.48 129.885 41.92 129.899 41.32C129.939 40.08 130.179 39.0533 130.619 38.24C131.059 37.4133 131.665 36.8 132.439 36.4C133.225 36 134.139 35.8 135.179 35.8C136.219 35.8 137.125 36 137.899 36.4C138.685 36.8 139.299 37.4133 139.739 38.24C140.192 39.0533 140.432 40.08 140.459 41.32C140.485 41.92 140.499 42.48 140.499 43C140.499 43.52 140.485 44.08 140.459 44.68C140.432 45.9333 140.205 46.9733 139.779 47.8C139.365 48.6133 138.772 49.22 137.999 49.62C137.225 50.0067 136.285 50.2 135.179 50.2ZM135.179 49C136.325 49 137.265 48.6533 137.999 47.96C138.745 47.2667 139.145 46.14 139.199 44.58C139.225 43.98 139.239 43.4533 139.239 43C139.239 42.5467 139.225 42.02 139.199 41.42C139.172 40.38 138.979 39.5333 138.619 38.88C138.272 38.2267 137.799 37.7533 137.199 37.46C136.612 37.1533 135.939 37 135.179 37C134.432 37 133.759 37.1533 133.159 37.46C132.572 37.7533 132.099 38.2267 131.739 38.88C131.392 39.5333 131.199 40.38 131.159 41.42C131.145 42.02 131.139 42.5467 131.139 43C131.139 43.4533 131.145 43.98 131.159 44.58C131.212 46.14 131.612 47.2667 132.359 47.96C133.105 48.6533 134.045 49 135.179 49ZM148.421 50.2C147.207 50.2 146.214 49.9667 145.441 49.5C144.681 49.02 144.114 48.3733 143.741 47.56C143.367 46.7467 143.161 45.82 143.121 44.78C143.107 44.2333 143.101 43.6467 143.101 43.02C143.101 42.3933 143.107 41.7933 143.121 41.22C143.161 40.18 143.367 39.2533 143.741 38.44C144.114 37.6133 144.681 36.9667 145.441 36.5C146.214 36.0333 147.207 35.8 148.421 35.8C149.367 35.8 150.174 35.9333 150.841 36.2C151.507 36.4667 152.047 36.82 152.461 37.26C152.887 37.6867 153.201 38.1533 153.401 38.66C153.614 39.1533 153.734 39.64 153.761 40.12C153.774 40.24 153.734 40.34 153.641 40.42C153.561 40.4867 153.461 40.52 153.341 40.52H152.941C152.834 40.52 152.741 40.4933 152.661 40.44C152.581 40.3733 152.527 40.26 152.501 40.1C152.247 38.9133 151.767 38.1 151.061 37.66C150.367 37.22 149.487 37 148.421 37C147.207 37 146.241 37.3467 145.521 38.04C144.814 38.72 144.434 39.8133 144.381 41.32C144.341 42.4133 144.341 43.5333 144.381 44.68C144.434 46.1867 144.814 47.2867 145.521 47.98C146.241 48.66 147.207 49 148.421 49C149.487 49 150.367 48.78 151.061 48.34C151.767 47.9 152.247 47.0867 152.501 45.9C152.527 45.74 152.581 45.6333 152.661 45.58C152.741 45.5133 152.834 45.48 152.941 45.48H153.341C153.461 45.48 153.561 45.52 153.641 45.6C153.734 45.6667 153.774 45.76 153.761 45.88C153.734 46.36 153.614 46.8533 153.401 47.36C153.201 47.8533 152.887 48.32 152.461 48.76C152.047 49.1867 151.507 49.5333 150.841 49.8C150.174 50.0667 149.367 50.2 148.421 50.2ZM161.448 50.2C160.235 50.2 159.241 49.9667 158.468 49.5C157.708 49.02 157.141 48.3733 156.768 47.56C156.395 46.7467 156.188 45.82 156.148 44.78C156.135 44.2333 156.128 43.6467 156.128 43.02C156.128 42.3933 156.135 41.7933 156.148 41.22C156.188 40.18 156.395 39.2533 156.768 38.44C157.141 37.6133 157.708 36.9667 158.468 36.5C159.241 36.0333 160.235 35.8 161.448 35.8C162.395 35.8 163.201 35.9333 163.868 36.2C164.535 36.4667 165.075 36.82 165.488 37.26C165.915 37.6867 166.228 38.1533 166.428 38.66C166.641 39.1533 166.761 39.64 166.788 40.12C166.801 40.24 166.761 40.34 166.668 40.42C166.588 40.4867 166.488 40.52 166.368 40.52H165.968C165.861 40.52 165.768 40.4933 165.688 40.44C165.608 40.3733 165.555 40.26 165.528 40.1C165.275 38.9133 164.795 38.1 164.088 37.66C163.395 37.22 162.515 37 161.448 37C160.235 37 159.268 37.3467 158.548 38.04C157.841 38.72 157.461 39.8133 157.408 41.32C157.368 42.4133 157.368 43.5333 157.408 44.68C157.461 46.1867 157.841 47.2867 158.548 47.98C159.268 48.66 160.235 49 161.448 49C162.515 49 163.395 48.78 164.088 48.34C164.795 47.9 165.275 47.0867 165.528 45.9C165.555 45.74 165.608 45.6333 165.688 45.58C165.768 45.5133 165.861 45.48 165.968 45.48H166.368C166.488 45.48 166.588 45.52 166.668 45.6C166.761 45.6667 166.801 45.76 166.788 45.88C166.761 46.36 166.641 46.8533 166.428 47.36C166.228 47.8533 165.915 48.32 165.488 48.76C165.075 49.1867 164.535 49.5333 163.868 49.8C163.201 50.0667 162.395 50.2 161.448 50.2ZM170.175 50C170.042 50 169.935 49.96 169.855 49.88C169.775 49.7867 169.735 49.6733 169.735 49.54V36.46C169.735 36.3133 169.775 36.2 169.855 36.12C169.949 36.04 170.062 36 170.195 36H170.555C170.689 36 170.795 36.04 170.875 36.12C170.955 36.2 170.995 36.3133 170.995 36.46V47.8L179.215 36.24C179.242 36.2133 179.282 36.1667 179.335 36.1C179.402 36.0333 179.502 36 179.635 36H180.055C180.189 36 180.295 36.04 180.375 36.12C180.455 36.2 180.495 36.3133 180.495 36.46V49.56C180.495 49.6933 180.455 49.8 180.375 49.88C180.295 49.96 180.189 50 180.055 50H179.695C179.562 50 179.449 49.96 179.355 49.88C179.275 49.8 179.235 49.6933 179.235 49.56V38.24L171.035 49.76C171.022 49.7867 170.982 49.8333 170.915 49.9C170.849 49.9667 170.749 50 170.615 50H170.175ZM192.527 50C192.394 50 192.281 49.96 192.187 49.88C192.107 49.8 192.067 49.6933 192.067 49.56V44.46H188.607C187.714 44.46 186.954 44.3 186.327 43.98C185.701 43.66 185.221 43.1933 184.887 42.58C184.567 41.9533 184.407 41.1867 184.407 40.28C184.407 39.5867 184.554 38.9133 184.847 38.26C185.141 37.6067 185.594 37.0667 186.207 36.64C186.834 36.2133 187.634 36 188.607 36H192.887C193.021 36 193.127 36.04 193.207 36.12C193.287 36.2 193.327 36.3067 193.327 36.44V49.56C193.327 49.6933 193.287 49.8 193.207 49.88C193.127 49.96 193.021 50 192.887 50H192.527ZM184.567 50C184.461 50 184.367 49.96 184.287 49.88C184.207 49.8 184.167 49.7067 184.167 49.6C184.167 49.5333 184.187 49.46 184.227 49.38L188.007 43.62L189.307 43.8L185.567 49.46C185.474 49.5933 185.381 49.72 185.287 49.84C185.194 49.9467 185.034 50 184.807 50H184.567ZM188.807 43.26H192.067V37.2H188.807C187.821 37.2 187.047 37.4867 186.487 38.06C185.941 38.6333 185.667 39.3933 185.667 40.34C185.667 41.3133 185.921 42.0467 186.427 42.54C186.947 43.02 187.741 43.26 188.807 43.26Z" fill="black"/>
</svg>
