<svg width="271" height="23" fill="none" xmlns="http://www.w3.org/2000/svg"><path d="M9.6 11.034 18.842 23h-6.254l-7.29-9.776h-.12V23H0V0h5.139v9.33h.12L12.548 0h5.935L9.6 11.034ZM79.152 23h-5.616l-2.15-5.436h-7.29L62.062 23h-5.099l8.804-23h4.103l9.282 23Zm-9.36-9.695-1.235-3.61c-.359-1.095-.678-2.069-.797-2.799h-.04c-.12.77-.438 1.744-.796 2.758l-1.355 3.692h4.222v-.04Zm-43.7.162h7.29v-4.3h-7.29V4.26h7.25L35.055 0H20.874v23h13.663v-4.26h-8.445v-5.273ZM56.925 23h-6.254l-5.697-9.086h-1.792V23h-5.259V0h6.493c4.223 0 6.374.446 7.689 1.46 1.593 1.258 2.51 3.043 2.51 5.03 0 4.665-4.263 6.288-4.263 6.288L56.925 23Zm-7.41-15.942c0-1.866-1.513-2.799-3.425-2.799h-2.948v5.558h2.43c2.23 0 3.943-.771 3.943-2.759ZM265.782 0v23H271V0h-5.218ZM93.932 7.91c-.678 1.095-1.235 2.069-1.634 2.88h-.08a38.892 38.892 0 0 0-1.752-2.718L84.85 0h-4.7v23h5.178V11.155c0-.608 0-1.541-.04-2.312h.08c.478.852 1.036 1.582 1.514 2.231l4.183 5.841h2.27l3.705-5.638c.358-.609 1.315-1.947 1.513-2.434h.04c-.04.69-.04 1.623-.04 2.475V23h5.179V0h-4.74l-5.059 7.91ZM126.836 23h-5.617l-2.151-5.436h-7.29L109.747 23h-5.099l8.763-23h4.104l9.321 23Zm-9.362-9.695-1.234-3.61c-.359-1.095-.677-2.069-.837-2.799h-.04c-.119.77-.438 1.744-.837 2.758l-1.354 3.692h4.302v-.04Zm31.63-5.395c-.678 1.095-1.235 2.069-1.633 2.88h-.08a39.205 39.205 0 0 0-1.752-2.718L140.021 0h-4.7v23h5.178V11.155c0-.608 0-1.541-.039-2.312h.079c.478.852 1.036 1.582 1.514 2.231l4.183 5.841h2.27l3.705-5.638c.359-.609 1.315-1.947 1.513-2.434h.041c-.041.69-.041 1.623-.041 2.475V23h5.179V0h-4.74l-5.059 7.91ZM182.128 23h-5.658l-2.15-5.436h-7.29L164.998 23h-5.099l8.803-23h4.104l9.322 23Zm-9.362-9.695-1.235-3.61c-.358-1.095-.677-2.069-.837-2.799h-.039c-.12.77-.439 1.744-.837 2.758l-1.354 3.692h4.302v-.04ZM224.672 0l1.672 4.138h9.322L224.352 23h19.201v-4.3h-10.795L243.752 0h-19.08Zm-9.641 0 9.321 23h-5.656l-2.151-5.436h-7.29L207.223 23h-5.098l8.803-23h4.103Zm-.039 13.305-1.235-3.61c-.359-1.095-.678-2.069-.797-2.799h-.04c-.119.77-.438 1.744-.796 2.758l-1.355 3.692h4.223v-.04Zm-19.48-.527L202.085 23h-6.254l-5.697-9.086h-1.792V23h-5.259V0h6.494c4.222 0 6.373.446 7.688 1.46 1.593 1.258 2.51 3.043 2.51 5.03 0 4.665-4.263 6.288-4.263 6.288Zm-.796-5.72c0-1.866-1.514-2.799-3.427-2.799h-2.947v5.558h2.429c2.232 0 3.945-.771 3.945-2.759ZM244.47 0l1.672 4.138h9.322L244.151 23h19.161v-4.3h-10.796L263.511 0H244.47Z" fill="#293132"/></svg>