<svg width="230" height="33" fill="none" xmlns="http://www.w3.org/2000/svg"><g clip-path="url(#a)"><path d="M46.299 0C41.4 0 37.605 1.396 34.914 4.21c-2.714 2.816-4.048 6.912-4.048 12.29 0 5.355 1.357 9.429 4.048 12.243 2.714 2.815 6.486 4.211 11.385 4.211 4.876 0 8.694-1.396 11.385-4.21 2.691-2.815 4.048-6.889 4.048-12.244 0-5.378-1.357-9.474-4.048-12.29C54.97 1.42 51.175 0 46.299 0Zm6.049 26.089c0 3.18-2.484 5.79-5.635 5.996a2.652 2.652 0 0 1-.437.023c-.138 0-.276 0-.437-.023-3.151-.23-5.635-2.815-5.635-5.996v-19.2c0-3.182 2.484-5.79 5.635-5.996.138-.023.276-.023.437-.023.138 0 .299 0 .437.023 3.151.228 5.635 2.814 5.635 5.995v19.2Zm28.842 5.355c-.276.435-.713.64-1.334.64h-4.301c-.345 0-.552-.045-.644-.16-.092-.114-.138-.366-.138-.755V4.51c0-.458.161-1.282.46-1.557L78.269.07V0H62.997v.092l3.059 2.883c.276.275.414 1.099.414 1.556V28.95c0 .458-.138.824-.414 1.099l-3.082 2.883v.092H87.63v-11.9h-.092l-6.348 10.32ZM0 16.5c0 5.927 3.151 11.122 7.866 14.028.023 0 .023.023.023.023.046.023.069.046.115.069a13.019 13.019 0 0 0 3.381 1.533c1.633.527 3.381.824 5.198.824H27.393V20.711h-.092l-7.015 10.756c-.299.434-.805.64-1.518.64h-.506c-4.715 0-8.326-5.194-8.326-15.561 0-10.459 3.588-15.7 8.234-15.7h.644c.713 0 1.196.252 1.518.733l6.969 10.504h.092V0h-10.81C7.429 0 0 7.392 0 16.5Zm128.846.984c-.483-.618-1.15-1.236-2.024-1.854-.874-.618-1.656-1.121-2.369-1.51-.713-.39-1.656-.87-2.852-1.442l-1.702-.824c-2.07-1.007-3.565-1.922-4.462-2.746-.897-.824-1.357-1.9-1.357-3.227 0-1.579.506-2.814 1.495-3.684.989-.893 2.323-1.327 3.956-1.327.552 0 .989.023 1.334.091.368.069.667.275.92.64l6.187 9.864h.092V0h-9.131.023c-3.473.046-6.256.915-8.372 2.586-2.162 1.74-3.266 4.05-3.266 6.934 0 1.373.23 2.609.713 3.707a8.25 8.25 0 0 0 2.07 2.884c.92.824 1.771 1.488 2.645 2.014a28.984 28.984 0 0 0 3.128 1.67l1.426.687c2.323 1.098 3.956 2.082 4.899 2.952.943.87 1.426 2.014 1.426 3.433 0 1.67-.575 2.975-1.702 3.89-1.127.916-2.645 1.373-4.531 1.373-.828 0-1.472-.023-1.932-.091-.391-.069-.736-.343-1.012-.824l-6.049-10.413h-.069v12.175h9.407c3.864 0 6.946-.961 9.315-2.883 2.346-1.923 3.519-4.417 3.519-7.53 0-1.03-.161-1.99-.506-2.883-.322-.847-.736-1.602-1.219-2.197ZM190.969 0h-11.155v.092l4.485 6.064c.391.458.598.961.598 1.51v16.73c0 3.844-3.128 6.956-6.992 6.956a7.035 7.035 0 0 1-2.875-.618c-.161-.068-.299-.137-.46-.206-.184-.114-.391-.205-.575-.343-.023 0-.023-.023-.046-.023-.115-.091-.23-.16-.345-.252-1.633-1.281-2.691-3.25-2.691-5.492V4.12c0-.457.161-.824.46-1.098l2.852-2.93V0h-14.812v.092l2.76 2.929c.299.274.46.64.46 1.098v17.53c0 4.074.989 6.98 2.967 8.742 1.978 1.74 5.152 2.632 9.522 2.632 3.818 0 6.578-1.03 8.257-3.113 1.679-2.082 2.53-5.08 2.53-9.039V7.666c0-.549.207-1.052.598-1.51l4.485-6.064-.023-.092ZM89.631.092l3.059 2.883c.276.275.414 1.099.414 1.556V28.95c0 .458-.138.824-.414 1.099l-3.082 2.883v.092h15.272v-.092l-3.036-2.883c-.299-.275-.46-.64-.46-1.099V4.51c0-.458.161-1.282.46-1.557L104.88.07V0H89.608v.092h.023Zm137.333 3.34L230 .093V0h-9.867l-8.441 20.802L202.124 0h-10.971v.092l3.749 4.92c.276.343.414.778.414 1.327v18.972c0 .457-.207.96-.598 1.51l-4.623 6.065v.091h11.431v-.091l-4.646-6.065c-.391-.55-.598-1.053-.598-1.51V6.98c.115.389.414 1.075.874 2.014L207.897 33h.092l10.373-26.066c-.092.916-.138 1.83-.138 2.746v19.247c0 .457-.138.823-.414 1.098l-3.082 2.883V33H230v-.092l-3.036-2.883c-.299-.275-.46-.64-.46-1.098V4.553c0-.435.161-.824.46-1.121Zm-75.808 28.012c-.253.435-.713.64-1.38.64h-5.267c-.345 0-.552-.045-.644-.16-.092-.114-.138-.366-.138-.755V16.935h3.082c.46 0 .874.206 1.242.595l4.117 4.737h.092V10.642h-.092l-4.117 4.737c-.345.389-.736.617-1.196.64h-3.105V1.831c0-.39.046-.641.138-.755.092-.115.299-.16.644-.16h4.715c.552 0 .966.251 1.288.732l5.911 9.405h.092V0h-24.587v.092l3.082 2.883c.276.275.414.64.414 1.099v24.875c0 .458-.138.824-.414 1.099l-3.082 2.883v.092h25.001V21.809h-.092l-5.704 9.635Z" fill="#000"/></g><defs><clipPath id="a"><path fill="#fff" d="M0 0h230v33H0z"/></clipPath></defs></svg>