<svg width="146" height="33" fill="none" xmlns="http://www.w3.org/2000/svg"><g clip-path="url(#a)"><path fill-rule="evenodd" clip-rule="evenodd" d="M143.272.135c1.454 0 2.633 1.154 2.633 2.578s-1.179 2.578-2.633 2.578c-1.455 0-2.633-1.154-2.633-2.578s1.178-2.578 2.633-2.578ZM4.927 5.735C4.115 4.025 3.4 2.91 2.783 2.385c-.618-.516-1.536-.787-2.738-.803V.676H12.97v.906c-1.958.032-3.112.31-3.47.828-.357.517-.146 1.63.634 3.325l8.734 19.832 7.15-18.177c.958-2.379 1.267-3.938.942-4.662-.325-.732-1.487-1.114-3.485-1.146V.676H33.25v.906c-1.057.016-1.87.287-2.414.804-.544.525-1.178 1.639-1.893 3.349L17.992 32.79h-.764L4.928 5.735ZM35.07 32.28v-.907c1.78-.031 2.933-.31 3.47-.827.544-.517.812-1.63.812-3.325V5.735c0-1.694-.268-2.808-.813-3.325-.536-.517-1.69-.796-3.469-.828V.676h25.876l.074 3.476.097 3.476h-1.17c-.268-2.116-.885-3.5-1.852-4.152-.967-.653-2.909-.979-5.81-.979h-6.222c-.7 0-1.162.112-1.39.334-.235.231-.35.685-.35 1.369v10.532h7.029c2.16 0 3.607-.286 4.33-.859.731-.58 1.218-1.806 1.454-3.683h1.121V21.23h-1.12c-.237-1.877-.724-3.102-1.455-3.683-.723-.572-2.17-.859-4.33-.859h-7.028v11.583c0 .867.154 1.448.455 1.742.3.294.894.445 1.787.445h4.599c3.428 0 5.841-.397 7.247-1.185 1.405-.795 2.673-2.482 3.818-5.06h1.333l-1.073 4.034-1.097 4.033H35.07Zm36.674-6.92c0 2.45.3 4.064.894 4.82.593.764 1.868 1.162 3.818 1.193v.907H64.886v-.907c1.95-.031 3.225-.43 3.818-1.185.593-.764.894-2.37.894-4.829V3.961c-.683-.732-1.26-1.249-1.739-1.56-.804-.532-1.812-.803-3.022-.819V.676H73.359l18.54 22.76V7.595c0-2.442-.3-4.049-.893-4.812-.593-.772-1.869-1.17-3.819-1.202V.676h11.57v.906c-1.95.032-3.226.43-3.819 1.186-.593.764-.894 2.37-.894 4.828V32.79h-.763L71.743 6.355V25.36Zm33.294 1.86V5.736c0-1.694-.301-2.808-.894-3.325-.593-.517-1.868-.796-3.818-.828V.676h14.396v.906c-1.95.032-3.225.31-3.818.828-.593.517-.894 1.63-.894 3.325v21.487c0 1.694.301 2.808.894 3.325.593.517 1.868.796 3.818.827v.907h-14.396v-.907c1.95-.031 3.225-.31 3.834-.843.585-.51.878-1.615.878-3.31Zm32.352-17.063c-.537-2.394-1.667-4.36-3.381-5.895-1.714-1.535-3.631-2.307-5.76-2.307-1.438 0-2.624.422-3.542 1.257-.918.843-1.381 1.917-1.381 3.222 0 1.273.43 2.379 1.284 3.333.861.947 2.453 2.069 4.785 3.381 3.997 2.236 6.702 4.12 8.108 5.664 1.414 1.52 2.121 3.326 2.121 5.402 0 2.553-.968 4.637-2.892 6.268-1.927 1.631-4.388 2.45-7.386 2.45-1.933 0-4.086-.469-6.451-1.4-.715-.278-1.316-.31-1.803-.103-.496.207-.764.62-.813 1.225l-.024.279h-1.048l-1.479-10.135h1.121c1 2.752 2.356 4.844 4.079 6.276 1.722 1.44 3.721 2.156 5.988 2.156 1.681 0 3.063-.493 4.142-1.487 1.081-.995 1.617-2.284 1.617-3.85 0-1.52-.511-2.849-1.543-3.986-1.016-1.13-2.925-2.474-5.719-4.034-3.234-1.797-5.419-3.372-6.565-4.725-1.146-1.352-1.714-3.03-1.714-5.035 0-2.363.82-4.296 2.461-5.808C123.236.803 125.34.047 127.915.047c1.552 0 3.38.438 5.493 1.305.795.326 1.445.398 1.965.222.512-.183.861-.596 1.032-1.248l.073-.279h1.024l1.145 10.111h-1.258Zm4.652-5.93h.608V2.976h.711l.678 1.254h.717l-.715-1.325c.782-.34.719-1.795-.354-1.795h-1.645v3.12Zm1.573-1.85h-.965v-.673h.965c.439 0 .41.673 0 .673Zm-.342-1.926c1.276 0 2.309 1.012 2.309 2.261 0 1.25-1.033 2.262-2.309 2.262-1.275 0-2.31-1.013-2.31-2.262s1.035-2.261 2.31-2.261Z" fill="#231F20"/></g><defs><clipPath id="a"><path fill="#fff" d="M0 0h146v33H0z"/></clipPath></defs></svg>