<svg width="40" height="41" viewBox="0 0 40 41" fill="none" xmlns="http://www.w3.org/2000/svg">
<g id="Iconly/Bulk/Arrow - Right Circle">
<rect width="40" height="40" rx="8" transform="matrix(-1 0 0 1 40 0.660156)" fill="#3186EE"/>
<g id="Arrow - Right Circle">
<path id="Fill 4" d="M22.4041 13.626C22.0858 13.626 21.7658 13.7477 21.5224 13.991L15.7108 19.7743C15.4758 20.0093 15.3441 20.3277 15.3441 20.661C15.3441 20.9927 15.4758 21.311 15.7108 21.546L21.5224 27.3327C22.0108 27.8193 22.8008 27.8193 23.2891 27.3293C23.7758 26.8393 23.7741 26.0477 23.2858 25.561L18.3641 20.661L23.2858 15.761C23.7741 15.2743 23.7758 14.4843 23.2891 13.9943C23.0458 13.7477 22.7241 13.626 22.4041 13.626Z" fill="white"/>
</g>
</g>
</svg>
